<?xml version="1.0" encoding="UTF-8" standalone="no"?>
<!DOCTYPE svg PUBLIC "-//W3C//DTD SVG 1.1//EN"
 "http://www.w3.org/Graphics/SVG/1.1/DTD/svg11.dtd">
<!-- Generated by graphviz version 2.40.1 (20161225.0304)
 -->
<!-- Title: dependencies Pages: 1 -->
<svg width="1119pt" height="211pt"
 viewBox="0.00 0.00 1119.00 211.00" xmlns="http://www.w3.org/2000/svg" xmlns:xlink="http://www.w3.org/1999/xlink">
<g id="graph0" class="graph" transform="scale(1 1) rotate(0) translate(4 207)">
<title>dependencies</title>
<polygon fill="#ffffff" stroke="transparent" points="-4,4 -4,-207 1115,-207 1115,4 -4,4"/>
<text text-anchor="start" x="534.5091" y="-42.4" font-family="sans-serif" font-weight="bold" font-size="14.00" fill="#000000">Legend</text>
<polygon fill="#ffffb3" stroke="transparent" points="321.5,-10 321.5,-30 341.5,-30 341.5,-10 321.5,-10"/>
<text text-anchor="start" x="345.129" y="-15.4" font-family="sans-serif" font-size="14.00" fill="#000000"> &#160;Declarations</text>
<polygon fill="#8dd3c7" stroke="transparent" points="434.5,-10 434.5,-30 454.5,-30 454.5,-10 434.5,-10"/>
<text text-anchor="start" x="458.2251" y="-15.4" font-family="sans-serif" font-size="14.00" fill="#000000"> &#160;Module</text>
<polygon fill="#80b1d3" stroke="transparent" points="520.5,-10 520.5,-30 540.5,-30 540.5,-10 520.5,-10"/>
<text text-anchor="start" x="544.2812" y="-15.4" font-family="sans-serif" font-size="14.00" fill="#000000"> &#160;Bootstrap</text>
<polygon fill="#fdb462" stroke="transparent" points="617.5,-10 617.5,-30 637.5,-30 637.5,-10 617.5,-10"/>
<text text-anchor="start" x="641.1732" y="-15.4" font-family="sans-serif" font-size="14.00" fill="#000000"> &#160;Providers</text>
<polygon fill="#fb8072" stroke="transparent" points="713.5,-10 713.5,-30 733.5,-30 733.5,-10 713.5,-10"/>
<text text-anchor="start" x="737.2258" y="-15.4" font-family="sans-serif" font-size="14.00" fill="#000000"> &#160;Exports</text>
<g id="clust1" class="cluster">
<title>cluster_CoreModule</title>
<polygon fill="none" stroke="#000000" stroke-dasharray="1,5" points="8,-70 8,-195 1103,-195 1103,-70 8,-70"/>
</g>
<g id="clust3" class="cluster">
<title>cluster_CoreModule_imports</title>
<polygon fill="none" stroke="#000000" points="937,-78 937,-130 1095,-130 1095,-78 937,-78"/>
</g>
<g id="clust6" class="cluster">
<title>cluster_CoreModule_providers</title>
<polygon fill="none" stroke="#000000" points="16,-78 16,-130 929,-130 929,-78 16,-78"/>
</g>
<!-- AuthenticationModule -->
<g id="node1" class="node">
<title>AuthenticationModule</title>
<polygon fill="#8dd3c7" stroke="#000000" points="1087.2534,-122 1084.2534,-126 1063.2534,-126 1060.2534,-122 944.7466,-122 944.7466,-86 1087.2534,-86 1087.2534,-122"/>
<text text-anchor="middle" x="1016" y="-99.8" font-family="Times,serif" font-size="14.00" fill="#000000">AuthenticationModule</text>
</g>
<!-- CoreModule -->
<g id="node2" class="node">
<title>CoreModule</title>
<polygon fill="#8dd3c7" stroke="#000000" points="586.2619,-187 583.2619,-191 562.2619,-191 559.2619,-187 499.7381,-187 499.7381,-151 586.2619,-151 586.2619,-187"/>
<text text-anchor="middle" x="543" y="-164.8" font-family="Times,serif" font-size="14.00" fill="#000000">CoreModule</text>
</g>
<!-- AuthenticationModule&#45;&gt;CoreModule -->
<g id="edge1" class="edge">
<title>AuthenticationModule&#45;&gt;CoreModule</title>
<path fill="none" stroke="#000000" d="M1016,-122.2843C1016,-143.3211 1016,-175 1016,-175 1016,-175 596.6509,-175 596.6509,-175"/>
<polygon fill="#000000" stroke="#000000" points="596.6509,-171.5001 586.6509,-175 596.6508,-178.5001 596.6509,-171.5001"/>
</g>
<!-- ApiPrefixInterceptor -->
<g id="node3" class="node">
<title>ApiPrefixInterceptor</title>
<ellipse fill="#fdb462" stroke="#000000" cx="830" cy="-104" rx="91.4481" ry="18"/>
<text text-anchor="middle" x="830" y="-99.8" font-family="Times,serif" font-size="14.00" fill="#000000">ApiPrefixInterceptor</text>
</g>
<!-- ApiPrefixInterceptor&#45;&gt;CoreModule -->
<g id="edge2" class="edge">
<title>ApiPrefixInterceptor&#45;&gt;CoreModule</title>
<path fill="none" stroke="#000000" d="M830,-122.0225C830,-139.3734 830,-163 830,-163 830,-163 596.2775,-163 596.2775,-163"/>
<polygon fill="#000000" stroke="#000000" points="596.2776,-159.5001 586.2775,-163 596.2775,-166.5001 596.2776,-159.5001"/>
</g>
<!-- CacheInterceptor -->
<g id="node4" class="node">
<title>CacheInterceptor</title>
<ellipse fill="#fdb462" stroke="#000000" cx="643" cy="-104" rx="77.5453" ry="18"/>
<text text-anchor="middle" x="643" y="-99.8" font-family="Times,serif" font-size="14.00" fill="#000000">CacheInterceptor</text>
</g>
<!-- CacheInterceptor&#45;&gt;CoreModule -->
<g id="edge3" class="edge">
<title>CacheInterceptor&#45;&gt;CoreModule</title>
<path fill="none" stroke="#000000" d="M575.9291,-113.038C575.9291,-113.038 575.9291,-140.9586 575.9291,-140.9586"/>
<polygon fill="#000000" stroke="#000000" points="572.4292,-140.9586 575.9291,-150.9586 579.4292,-140.9587 572.4292,-140.9586"/>
</g>
<!-- ErrorHandlerInterceptor -->
<g id="node5" class="node">
<title>ErrorHandlerInterceptor</title>
<ellipse fill="#fdb462" stroke="#000000" cx="443" cy="-104" rx="104.7327" ry="18"/>
<text text-anchor="middle" x="443" y="-99.8" font-family="Times,serif" font-size="14.00" fill="#000000">ErrorHandlerInterceptor</text>
</g>
<!-- ErrorHandlerInterceptor&#45;&gt;CoreModule -->
<g id="edge4" class="edge">
<title>ErrorHandlerInterceptor&#45;&gt;CoreModule</title>
<path fill="none" stroke="#000000" d="M523.7427,-115.6207C523.7427,-115.6207 523.7427,-140.8534 523.7427,-140.8534"/>
<polygon fill="#000000" stroke="#000000" points="520.2428,-140.8533 523.7427,-150.8534 527.2428,-140.8534 520.2428,-140.8533"/>
</g>
<!-- HttpCacheService -->
<g id="node6" class="node">
<title>HttpCacheService</title>
<ellipse fill="#fdb462" stroke="#000000" cx="239" cy="-104" rx="81.0763" ry="18"/>
<text text-anchor="middle" x="239" y="-99.8" font-family="Times,serif" font-size="14.00" fill="#000000">HttpCacheService</text>
</g>
<!-- HttpCacheService&#45;&gt;CoreModule -->
<g id="edge5" class="edge">
<title>HttpCacheService&#45;&gt;CoreModule</title>
<path fill="none" stroke="#000000" d="M239,-122.0225C239,-139.3734 239,-163 239,-163 239,-163 489.4442,-163 489.4442,-163"/>
<polygon fill="#000000" stroke="#000000" points="489.4442,-166.5001 499.4442,-163 489.4442,-159.5001 489.4442,-166.5001"/>
</g>
<!-- I18nService -->
<g id="node7" class="node">
<title>I18nService</title>
<ellipse fill="#fdb462" stroke="#000000" cx="82" cy="-104" rx="57.8849" ry="18"/>
<text text-anchor="middle" x="82" y="-99.8" font-family="Times,serif" font-size="14.00" fill="#000000">I18nService</text>
</g>
<!-- I18nService&#45;&gt;CoreModule -->
<g id="edge6" class="edge">
<title>I18nService&#45;&gt;CoreModule</title>
<path fill="none" stroke="#000000" d="M82,-122.2843C82,-143.3211 82,-175 82,-175 82,-175 489.6302,-175 489.6302,-175"/>
<polygon fill="#000000" stroke="#000000" points="489.6303,-178.5001 499.6302,-175 489.6302,-171.5001 489.6303,-178.5001"/>
</g>
</g>
</svg>
