<?xml version="1.0" encoding="UTF-8" standalone="no"?>
<!DOCTYPE svg PUBLIC "-//W3C//DTD SVG 1.1//EN"
 "http://www.w3.org/Graphics/SVG/1.1/DTD/svg11.dtd">
<!-- Generated by graphviz version 2.40.1 (20161225.0304)
 -->
<!-- Title: dependencies Pages: 1 -->
<svg width="6326pt" height="284pt"
 viewBox="0.00 0.00 6326.00 284.00" xmlns="http://www.w3.org/2000/svg" xmlns:xlink="http://www.w3.org/1999/xlink">
<g id="graph0" class="graph" transform="scale(1 1) rotate(0) translate(4 280)">
<title>dependencies</title>
<polygon fill="#ffffff" stroke="transparent" points="-4,4 -4,-280 6322,-280 6322,4 -4,4"/>
<text text-anchor="start" x="3138.0091" y="-42.4" font-family="sans-serif" font-weight="bold" font-size="14.00" fill="#000000">Legend</text>
<polygon fill="#ffffb3" stroke="transparent" points="2925,-10 2925,-30 2945,-30 2945,-10 2925,-10"/>
<text text-anchor="start" x="2948.629" y="-15.4" font-family="sans-serif" font-size="14.00" fill="#000000"> &#160;Declarations</text>
<polygon fill="#8dd3c7" stroke="transparent" points="3038,-10 3038,-30 3058,-30 3058,-10 3038,-10"/>
<text text-anchor="start" x="3061.7251" y="-15.4" font-family="sans-serif" font-size="14.00" fill="#000000"> &#160;Module</text>
<polygon fill="#80b1d3" stroke="transparent" points="3124,-10 3124,-30 3144,-30 3144,-10 3124,-10"/>
<text text-anchor="start" x="3147.7812" y="-15.4" font-family="sans-serif" font-size="14.00" fill="#000000"> &#160;Bootstrap</text>
<polygon fill="#fdb462" stroke="transparent" points="3221,-10 3221,-30 3241,-30 3241,-10 3221,-10"/>
<text text-anchor="start" x="3244.6732" y="-15.4" font-family="sans-serif" font-size="14.00" fill="#000000"> &#160;Providers</text>
<polygon fill="#fb8072" stroke="transparent" points="3317,-10 3317,-30 3337,-30 3337,-10 3317,-10"/>
<text text-anchor="start" x="3340.7258" y="-15.4" font-family="sans-serif" font-size="14.00" fill="#000000"> &#160;Exports</text>
<g id="clust1" class="cluster">
<title>cluster_SharedModule</title>
<polygon fill="none" stroke="#000000" stroke-dasharray="1,5" points="8,-70 8,-268 6310,-268 6310,-70 8,-70"/>
</g>
<g id="clust2" class="cluster">
<title>cluster_SharedModule_declarations</title>
<polygon fill="none" stroke="#000000" points="3627,-78 3627,-130 6302,-130 6302,-78 3627,-78"/>
</g>
<g id="clust22" class="cluster">
<title>cluster_SharedModule_exports</title>
<polygon fill="none" stroke="#000000" points="1984,-208 1984,-260 4723,-260 4723,-208 1984,-208"/>
</g>
<g id="clust24" class="cluster">
<title>cluster_SharedModule_providers</title>
<polygon fill="none" stroke="#000000" points="16,-78 16,-130 3619,-130 3619,-78 16,-78"/>
</g>
<!-- ClipboardDirective -->
<g id="node1" class="node">
<title>ClipboardDirective</title>
<polygon fill="#ffffb3" stroke="#000000" points="6294.0758,-122 6169.9242,-122 6169.9242,-86 6294.0758,-86 6294.0758,-122"/>
<text text-anchor="middle" x="6232" y="-99.8" font-family="Times,serif" font-size="14.00" fill="#000000">ClipboardDirective</text>
</g>
<!-- SharedModule -->
<g id="node19" class="node">
<title>SharedModule</title>
<polygon fill="#8dd3c7" stroke="#000000" points="3533.4231,-187 3530.4231,-191 3509.4231,-191 3506.4231,-187 3434.5769,-187 3434.5769,-151 3533.4231,-151 3533.4231,-187"/>
<text text-anchor="middle" x="3484" y="-164.8" font-family="Times,serif" font-size="14.00" fill="#000000">SharedModule</text>
</g>
<!-- ClipboardDirective&#45;&gt;SharedModule -->
<g id="edge1" class="edge">
<title>ClipboardDirective&#45;&gt;SharedModule</title>
<path fill="none" stroke="#000000" d="M6232,-122.2843C6232,-143.3211 6232,-175 6232,-175 6232,-175 3543.4511,-175 3543.4511,-175"/>
<polygon fill="#000000" stroke="#000000" points="3543.4511,-171.5001 3533.4511,-175 3543.451,-178.5001 3543.4511,-171.5001"/>
</g>
<!-- ConsoleLogPipe -->
<g id="node2" class="node">
<title>ConsoleLogPipe</title>
<polygon fill="#ffffb3" stroke="#000000" points="6151.8273,-122 6042.1727,-122 6042.1727,-86 6151.8273,-86 6151.8273,-122"/>
<text text-anchor="middle" x="6097" y="-99.8" font-family="Times,serif" font-size="14.00" fill="#000000">ConsoleLogPipe</text>
</g>
<!-- ConsoleLogPipe&#45;&gt;SharedModule -->
<g id="edge2" class="edge">
<title>ConsoleLogPipe&#45;&gt;SharedModule</title>
<path fill="none" stroke="#000000" d="M6097,-122.0267C6097,-142.7672 6097,-174 6097,-174 6097,-174 3543.29,-174 3543.29,-174"/>
<polygon fill="#000000" stroke="#000000" points="3543.29,-170.5001 3533.29,-174 3543.2899,-177.5001 3543.29,-170.5001"/>
</g>
<!-- FirstLetterPipe -->
<g id="node3" class="node">
<title>FirstLetterPipe</title>
<polygon fill="#ffffb3" stroke="#000000" points="6023.9804,-122 5924.0196,-122 5924.0196,-86 6023.9804,-86 6023.9804,-122"/>
<text text-anchor="middle" x="5974" y="-99.8" font-family="Times,serif" font-size="14.00" fill="#000000">FirstLetterPipe</text>
</g>
<!-- FirstLetterPipe&#45;&gt;SharedModule -->
<g id="edge3" class="edge">
<title>FirstLetterPipe&#45;&gt;SharedModule</title>
<path fill="none" stroke="#000000" d="M5974,-122.1289C5974,-142.5724 5974,-173 5974,-173 5974,-173 3543.4585,-173 3543.4585,-173"/>
<polygon fill="#000000" stroke="#000000" points="3543.4585,-169.5001 3533.4585,-173 3543.4584,-176.5001 3543.4585,-169.5001"/>
</g>
<!-- GetObjectPipe -->
<g id="node4" class="node">
<title>GetObjectPipe</title>
<polygon fill="#ffffb3" stroke="#000000" points="5906.4175,-122 5807.5825,-122 5807.5825,-86 5906.4175,-86 5906.4175,-122"/>
<text text-anchor="middle" x="5857" y="-99.8" font-family="Times,serif" font-size="14.00" fill="#000000">GetObjectPipe</text>
</g>
<!-- GetObjectPipe&#45;&gt;SharedModule -->
<g id="edge4" class="edge">
<title>GetObjectPipe&#45;&gt;SharedModule</title>
<path fill="none" stroke="#000000" d="M5857,-122.308C5857,-142.1455 5857,-171 5857,-171 5857,-171 3543.2908,-171 3543.2908,-171"/>
<polygon fill="#000000" stroke="#000000" points="3543.2908,-167.5001 3533.2908,-171 3543.2907,-174.5001 3543.2908,-167.5001"/>
</g>
<!-- HeaderDirective -->
<g id="node5" class="node">
<title>HeaderDirective</title>
<polygon fill="#ffffb3" stroke="#000000" points="5790.4949,-122 5681.5051,-122 5681.5051,-86 5790.4949,-86 5790.4949,-122"/>
<text text-anchor="middle" x="5736" y="-99.8" font-family="Times,serif" font-size="14.00" fill="#000000">HeaderDirective</text>
</g>
<!-- HeaderDirective&#45;&gt;SharedModule -->
<g id="edge5" class="edge">
<title>HeaderDirective&#45;&gt;SharedModule</title>
<path fill="none" stroke="#000000" d="M5736,-122.0348C5736,-141.5762 5736,-170 5736,-170 5736,-170 3543.3954,-170 3543.3954,-170"/>
<polygon fill="#000000" stroke="#000000" points="3543.3954,-166.5001 3533.3954,-170 3543.3953,-173.5001 3543.3954,-166.5001"/>
</g>
<!-- JoinPipe -->
<g id="node6" class="node">
<title>JoinPipe</title>
<polygon fill="#ffffb3" stroke="#000000" points="5664.2234,-122 5599.7766,-122 5599.7766,-86 5664.2234,-86 5664.2234,-122"/>
<text text-anchor="middle" x="5632" y="-99.8" font-family="Times,serif" font-size="14.00" fill="#000000">JoinPipe</text>
</g>
<!-- JoinPipe&#45;&gt;SharedModule -->
<g id="edge6" class="edge">
<title>JoinPipe&#45;&gt;SharedModule</title>
<path fill="none" stroke="#000000" d="M5632,-122.1061C5632,-141.3391 5632,-169 5632,-169 5632,-169 3543.4157,-169 3543.4157,-169"/>
<polygon fill="#000000" stroke="#000000" points="3543.4157,-165.5001 3533.4157,-169 3543.4156,-172.5001 3543.4157,-165.5001"/>
</g>
<!-- LoaderComponent -->
<g id="node7" class="node">
<title>LoaderComponent</title>
<polygon fill="#ffffb3" stroke="#000000" points="5581.4748,-122 5460.5252,-122 5460.5252,-86 5581.4748,-86 5581.4748,-122"/>
<text text-anchor="middle" x="5521" y="-99.8" font-family="Times,serif" font-size="14.00" fill="#000000">LoaderComponent</text>
</g>
<!-- LoaderComponent&#45;&gt;SharedModule -->
<g id="edge7" class="edge">
<title>LoaderComponent&#45;&gt;SharedModule</title>
<path fill="none" stroke="#000000" d="M5521,-122.2222C5521,-140.8285 5521,-167 5521,-167 5521,-167 3543.3438,-167 3543.3438,-167"/>
<polygon fill="#000000" stroke="#000000" points="3543.3438,-163.5001 3533.3438,-167 3543.3437,-170.5001 3543.3438,-163.5001"/>
</g>
<!-- MenuAsideDirective -->
<g id="node8" class="node">
<title>MenuAsideDirective</title>
<polygon fill="#ffffb3" stroke="#000000" points="5442.899,-122 5309.101,-122 5309.101,-86 5442.899,-86 5442.899,-122"/>
<text text-anchor="middle" x="5376" y="-99.8" font-family="Times,serif" font-size="14.00" fill="#000000">MenuAsideDirective</text>
</g>
<!-- MenuAsideDirective&#45;&gt;SharedModule -->
<g id="edge8" class="edge">
<title>MenuAsideDirective&#45;&gt;SharedModule</title>
<path fill="none" stroke="#000000" d="M5376,-122.2667C5376,-140.5552 5376,-166 5376,-166 5376,-166 3543.6339,-166 3543.6339,-166"/>
<polygon fill="#000000" stroke="#000000" points="3543.6339,-162.5001 3533.6339,-166 3543.6339,-169.5001 3543.6339,-162.5001"/>
</g>
<!-- MenuAsideOffcanvasDirective -->
<g id="node9" class="node">
<title>MenuAsideOffcanvasDirective</title>
<polygon fill="#ffffb3" stroke="#000000" points="5291.4146,-122 5100.5854,-122 5100.5854,-86 5291.4146,-86 5291.4146,-122"/>
<text text-anchor="middle" x="5196" y="-99.8" font-family="Times,serif" font-size="14.00" fill="#000000">MenuAsideOffcanvasDirective</text>
</g>
<!-- MenuAsideOffcanvasDirective&#45;&gt;SharedModule -->
<g id="edge9" class="edge">
<title>MenuAsideOffcanvasDirective&#45;&gt;SharedModule</title>
<path fill="none" stroke="#000000" d="M5196,-122.302C5196,-140.2699 5196,-165 5196,-165 5196,-165 3543.3905,-165 3543.3905,-165"/>
<polygon fill="#000000" stroke="#000000" points="3543.3906,-161.5001 3533.3905,-165 3543.3905,-168.5001 3543.3906,-161.5001"/>
</g>
<!-- MenuAsideToggleDirective -->
<g id="node10" class="node">
<title>MenuAsideToggleDirective</title>
<polygon fill="#ffffb3" stroke="#000000" points="5082.5562,-122 4909.4438,-122 4909.4438,-86 5082.5562,-86 5082.5562,-122"/>
<text text-anchor="middle" x="4996" y="-99.8" font-family="Times,serif" font-size="14.00" fill="#000000">MenuAsideToggleDirective</text>
</g>
<!-- MenuAsideToggleDirective&#45;&gt;SharedModule -->
<g id="edge10" class="edge">
<title>MenuAsideToggleDirective&#45;&gt;SharedModule</title>
<path fill="none" stroke="#000000" d="M4996,-122.0225C4996,-139.3734 4996,-163 4996,-163 4996,-163 3543.4473,-163 3543.4473,-163"/>
<polygon fill="#000000" stroke="#000000" points="3543.4474,-159.5001 3533.4473,-163 3543.4473,-166.5001 3543.4474,-159.5001"/>
</g>
<!-- MenuHorizontalDirective -->
<g id="node11" class="node">
<title>MenuHorizontalDirective</title>
<polygon fill="#ffffb3" stroke="#000000" points="4891.1107,-122 4730.8893,-122 4730.8893,-86 4891.1107,-86 4891.1107,-122"/>
<text text-anchor="middle" x="4811" y="-99.8" font-family="Times,serif" font-size="14.00" fill="#000000">MenuHorizontalDirective</text>
</g>
<!-- MenuHorizontalDirective&#45;&gt;SharedModule -->
<g id="edge11" class="edge">
<title>MenuHorizontalDirective&#45;&gt;SharedModule</title>
<path fill="none" stroke="#000000" d="M4811,-122.0336C4811,-139.0597 4811,-162 4811,-162 4811,-162 3543.5981,-162 3543.5981,-162"/>
<polygon fill="#000000" stroke="#000000" points="3543.5981,-158.5001 3533.5981,-162 3543.598,-165.5001 3543.5981,-158.5001"/>
</g>
<!-- MenuHorizontalOffcanvasDirective -->
<g id="node12" class="node">
<title>MenuHorizontalOffcanvasDirective</title>
<polygon fill="#ffffb3" stroke="#000000" points="4713.1264,-122 4494.8736,-122 4494.8736,-86 4713.1264,-86 4713.1264,-122"/>
<text text-anchor="middle" x="4604" y="-99.8" font-family="Times,serif" font-size="14.00" fill="#000000">MenuHorizontalOffcanvasDirective</text>
</g>
<!-- MenuHorizontalOffcanvasDirective&#45;&gt;SharedModule -->
<g id="edge12" class="edge">
<title>MenuHorizontalOffcanvasDirective&#45;&gt;SharedModule</title>
<path fill="none" stroke="#000000" d="M4532.1751,-122.0352C4532.1751,-138.7344 4532.1751,-161 4532.1751,-161 4532.1751,-161 3543.4996,-161 3543.4996,-161"/>
<polygon fill="#000000" stroke="#000000" points="3543.4996,-157.5001 3533.4996,-161 3543.4996,-164.5001 3543.4996,-157.5001"/>
</g>
<!-- PortletDirective -->
<g id="node13" class="node">
<title>PortletDirective</title>
<polygon fill="#ffffb3" stroke="#000000" points="4476.9132,-122 4371.0868,-122 4371.0868,-86 4476.9132,-86 4476.9132,-122"/>
<text text-anchor="middle" x="4424" y="-99.8" font-family="Times,serif" font-size="14.00" fill="#000000">PortletDirective</text>
</g>
<!-- PortletDirective&#45;&gt;SharedModule -->
<g id="edge13" class="edge">
<title>PortletDirective&#45;&gt;SharedModule</title>
<path fill="none" stroke="#000000" d="M4405.017,-122.0091C4405.017,-138.0494 4405.017,-159 4405.017,-159 4405.017,-159 3543.5179,-159 3543.5179,-159"/>
<polygon fill="#000000" stroke="#000000" points="3543.5179,-155.5001 3533.5179,-159 3543.5178,-162.5001 3543.5179,-155.5001"/>
</g>
<!-- QuickSearchDirective -->
<g id="node14" class="node">
<title>QuickSearchDirective</title>
<polygon fill="#ffffb3" stroke="#000000" points="4353.3821,-122 4212.6179,-122 4212.6179,-86 4353.3821,-86 4353.3821,-122"/>
<text text-anchor="middle" x="4283" y="-99.8" font-family="Times,serif" font-size="14.00" fill="#000000">QuickSearchDirective</text>
</g>
<!-- QuickSearchDirective&#45;&gt;SharedModule -->
<g id="edge14" class="edge">
<title>QuickSearchDirective&#45;&gt;SharedModule</title>
<path fill="none" stroke="#000000" d="M4249.0139,-122.2819C4249.0139,-137.9478 4249.0139,-158 4249.0139,-158 4249.0139,-158 3543.3117,-158 3543.3117,-158"/>
<polygon fill="#000000" stroke="#000000" points="3543.3117,-154.5001 3533.3117,-158 3543.3116,-161.5001 3543.3117,-154.5001"/>
</g>
<!-- QuickSidebarOffcanvasDirective -->
<g id="node15" class="node">
<title>QuickSidebarOffcanvasDirective</title>
<polygon fill="#ffffb3" stroke="#000000" points="4195.0742,-122 3992.9258,-122 3992.9258,-86 4195.0742,-86 4195.0742,-122"/>
<text text-anchor="middle" x="4094" y="-99.8" font-family="Times,serif" font-size="14.00" fill="#000000">QuickSidebarOffcanvasDirective</text>
</g>
<!-- QuickSidebarOffcanvasDirective&#45;&gt;SharedModule -->
<g id="edge15" class="edge">
<title>QuickSidebarOffcanvasDirective&#45;&gt;SharedModule</title>
<path fill="none" stroke="#000000" d="M4021.7128,-122.2396C4021.7128,-137.5706 4021.7128,-157 4021.7128,-157 4021.7128,-157 3543.6229,-157 3543.6229,-157"/>
<polygon fill="#000000" stroke="#000000" points="3543.6229,-153.5001 3533.6229,-157 3543.6229,-160.5001 3543.6229,-153.5001"/>
</g>
<!-- SafePipe -->
<g id="node16" class="node">
<title>SafePipe</title>
<polygon fill="#ffffb3" stroke="#000000" points="3974.7606,-122 3909.2394,-122 3909.2394,-86 3974.7606,-86 3974.7606,-122"/>
<text text-anchor="middle" x="3942" y="-99.8" font-family="Times,serif" font-size="14.00" fill="#000000">SafePipe</text>
</g>
<!-- SafePipe&#45;&gt;SharedModule -->
<g id="edge16" class="edge">
<title>SafePipe&#45;&gt;SharedModule</title>
<path fill="none" stroke="#000000" d="M3942,-122.1243C3942,-136.7832 3942,-155 3942,-155 3942,-155 3543.4492,-155 3543.4492,-155"/>
<polygon fill="#000000" stroke="#000000" points="3543.4492,-151.5001 3533.4492,-155 3543.4491,-158.5001 3543.4492,-151.5001"/>
</g>
<!-- ScrollTopDirective -->
<g id="node17" class="node">
<title>ScrollTopDirective</title>
<polygon fill="#ffffb3" stroke="#000000" points="3891.0744,-122 3766.9256,-122 3766.9256,-86 3891.0744,-86 3891.0744,-122"/>
<text text-anchor="middle" x="3829" y="-99.8" font-family="Times,serif" font-size="14.00" fill="#000000">ScrollTopDirective</text>
</g>
<!-- ScrollTopDirective&#45;&gt;SharedModule -->
<g id="edge17" class="edge">
<title>ScrollTopDirective&#45;&gt;SharedModule</title>
<path fill="none" stroke="#000000" d="M3802.706,-122.0511C3802.706,-136.373 3802.706,-154 3802.706,-154 3802.706,-154 3543.4481,-154 3543.4481,-154"/>
<polygon fill="#000000" stroke="#000000" points="3543.4482,-150.5001 3533.4481,-154 3543.4481,-157.5001 3543.4482,-150.5001"/>
</g>
<!-- TimeElapsedPipe -->
<g id="node18" class="node">
<title>TimeElapsedPipe</title>
<polygon fill="#ffffb3" stroke="#000000" points="3749.2535,-122 3634.7465,-122 3634.7465,-86 3749.2535,-86 3749.2535,-122"/>
<text text-anchor="middle" x="3692" y="-99.8" font-family="Times,serif" font-size="14.00" fill="#000000">TimeElapsedPipe</text>
</g>
<!-- TimeElapsedPipe&#45;&gt;SharedModule -->
<g id="edge18" class="edge">
<title>TimeElapsedPipe&#45;&gt;SharedModule</title>
<path fill="none" stroke="#000000" d="M3658.9154,-122.2458C3658.9154,-136.1772 3658.9154,-153 3658.9154,-153 3658.9154,-153 3543.6558,-153 3543.6558,-153"/>
<polygon fill="#000000" stroke="#000000" points="3543.6559,-149.5001 3533.6558,-153 3543.6558,-156.5001 3543.6559,-149.5001"/>
</g>
<!-- ClipboardDirective  -->
<g id="node20" class="node">
<title>ClipboardDirective </title>
<polygon fill="#fb8072" stroke="#000000" points="4714.5765,-252 4587.4235,-252 4587.4235,-216 4714.5765,-216 4714.5765,-252"/>
<text text-anchor="middle" x="4651" y="-229.8" font-family="Times,serif" font-size="14.00" fill="#000000">ClipboardDirective </text>
</g>
<!-- SharedModule&#45;&gt;ClipboardDirective  -->
<g id="edge19" class="edge">
<title>SharedModule&#45;&gt;ClipboardDirective </title>
<path fill="none" stroke="#000000" stroke-dasharray="5,2" d="M3533.3626,-177C3755.3195,-177 4650.1377,-177 4650.1377,-177 4650.1377,-177 4650.1377,-205.9648 4650.1377,-205.9648"/>
<polygon fill="#000000" stroke="#000000" points="4646.6377,-205.9648 4650.1377,-215.9648 4653.6377,-205.9649 4646.6377,-205.9648"/>
</g>
<!-- ConsoleLogPipe  -->
<g id="node21" class="node">
<title>ConsoleLogPipe </title>
<polygon fill="#fb8072" stroke="#000000" points="4569.3269,-252 4456.6731,-252 4456.6731,-216 4569.3269,-216 4569.3269,-252"/>
<text text-anchor="middle" x="4513" y="-229.8" font-family="Times,serif" font-size="14.00" fill="#000000">ConsoleLogPipe </text>
</g>
<!-- SharedModule&#45;&gt;ConsoleLogPipe  -->
<g id="edge20" class="edge">
<title>SharedModule&#45;&gt;ConsoleLogPipe </title>
<path fill="none" stroke="#000000" stroke-dasharray="5,2" d="M3533.403,-178C3732.667,-178 4466.6464,-178 4466.6464,-178 4466.6464,-178 4466.6464,-205.973 4466.6464,-205.973"/>
<polygon fill="#000000" stroke="#000000" points="4463.1465,-205.973 4466.6464,-215.973 4470.1465,-205.973 4463.1465,-205.973"/>
</g>
<!-- FirstLetterPipe  -->
<g id="node22" class="node">
<title>FirstLetterPipe </title>
<polygon fill="#fb8072" stroke="#000000" points="4438.9815,-252 4335.0185,-252 4335.0185,-216 4438.9815,-216 4438.9815,-252"/>
<text text-anchor="middle" x="4387" y="-229.8" font-family="Times,serif" font-size="14.00" fill="#000000">FirstLetterPipe </text>
</g>
<!-- SharedModule&#45;&gt;FirstLetterPipe  -->
<g id="edge21" class="edge">
<title>SharedModule&#45;&gt;FirstLetterPipe </title>
<path fill="none" stroke="#000000" stroke-dasharray="5,2" d="M3533.3391,-179C3716.1259,-179 4344.2253,-179 4344.2253,-179 4344.2253,-179 4344.2253,-205.9909 4344.2253,-205.9909"/>
<polygon fill="#000000" stroke="#000000" points="4340.7254,-205.9909 4344.2253,-215.9909 4347.7254,-205.991 4340.7254,-205.9909"/>
</g>
<!-- GetObjectPipe  -->
<g id="node23" class="node">
<title>GetObjectPipe </title>
<polygon fill="#fb8072" stroke="#000000" points="4316.9166,-252 4215.0834,-252 4215.0834,-216 4316.9166,-216 4316.9166,-252"/>
<text text-anchor="middle" x="4266" y="-229.8" font-family="Times,serif" font-size="14.00" fill="#000000">GetObjectPipe </text>
</g>
<!-- SharedModule&#45;&gt;GetObjectPipe  -->
<g id="edge22" class="edge">
<title>SharedModule&#45;&gt;GetObjectPipe </title>
<path fill="none" stroke="#000000" stroke-dasharray="5,2" d="M3533.3772,-181C3707.5742,-181 4282.9861,-181 4282.9861,-181 4282.9861,-181 4282.9861,-205.7604 4282.9861,-205.7604"/>
<polygon fill="#000000" stroke="#000000" points="4279.4862,-205.7604 4282.9861,-215.7604 4286.4862,-205.7604 4279.4862,-205.7604"/>
</g>
<!-- HeaderDirective  -->
<g id="node24" class="node">
<title>HeaderDirective </title>
<polygon fill="#fb8072" stroke="#000000" points="4196.9938,-252 4085.0062,-252 4085.0062,-216 4196.9938,-216 4196.9938,-252"/>
<text text-anchor="middle" x="4141" y="-229.8" font-family="Times,serif" font-size="14.00" fill="#000000">HeaderDirective </text>
</g>
<!-- SharedModule&#45;&gt;HeaderDirective  -->
<g id="edge23" class="edge">
<title>SharedModule&#45;&gt;HeaderDirective </title>
<path fill="none" stroke="#000000" stroke-dasharray="5,2" d="M3533.3175,-182C3685.9116,-182 4140.145,-182 4140.145,-182 4140.145,-182 4140.145,-205.8129 4140.145,-205.8129"/>
<polygon fill="#000000" stroke="#000000" points="4136.6451,-205.8129 4140.145,-215.8129 4143.6451,-205.813 4136.6451,-205.8129"/>
</g>
<!-- JoinPipe  -->
<g id="node25" class="node">
<title>JoinPipe </title>
<polygon fill="#fb8072" stroke="#000000" points="4066.7236,-252 3999.2764,-252 3999.2764,-216 4066.7236,-216 4066.7236,-252"/>
<text text-anchor="middle" x="4033" y="-229.8" font-family="Times,serif" font-size="14.00" fill="#000000">JoinPipe </text>
</g>
<!-- SharedModule&#45;&gt;JoinPipe  -->
<g id="edge24" class="edge">
<title>SharedModule&#45;&gt;JoinPipe </title>
<path fill="none" stroke="#000000" stroke-dasharray="5,2" d="M3533.2307,-183C3669.9511,-183 4044.2872,-183 4044.2872,-183 4044.2872,-183 4044.2872,-205.8757 4044.2872,-205.8757"/>
<polygon fill="#000000" stroke="#000000" points="4040.7873,-205.8757 4044.2872,-215.8757 4047.7873,-205.8757 4040.7873,-205.8757"/>
</g>
<!-- LoaderComponent  -->
<g id="node26" class="node">
<title>LoaderComponent </title>
<polygon fill="#fb8072" stroke="#000000" points="3981.4757,-252 3856.5243,-252 3856.5243,-216 3981.4757,-216 3981.4757,-252"/>
<text text-anchor="middle" x="3919" y="-229.8" font-family="Times,serif" font-size="14.00" fill="#000000">LoaderComponent </text>
</g>
<!-- SharedModule&#45;&gt;LoaderComponent  -->
<g id="edge25" class="edge">
<title>SharedModule&#45;&gt;LoaderComponent </title>
<path fill="none" stroke="#000000" stroke-dasharray="5,2" d="M3533.3811,-185C3638.2977,-185 3873.8999,-185 3873.8999,-185 3873.8999,-185 3873.8999,-205.7542 3873.8999,-205.7542"/>
<polygon fill="#000000" stroke="#000000" points="3870.4,-205.7542 3873.8999,-215.7542 3877.4,-205.7542 3870.4,-205.7542"/>
</g>
<!-- MenuAsideDirective  -->
<g id="node27" class="node">
<title>MenuAsideDirective </title>
<polygon fill="#fb8072" stroke="#000000" points="3838.3984,-252 3701.6016,-252 3701.6016,-216 3838.3984,-216 3838.3984,-252"/>
<text text-anchor="middle" x="3770" y="-229.8" font-family="Times,serif" font-size="14.00" fill="#000000">MenuAsideDirective </text>
</g>
<!-- SharedModule&#45;&gt;MenuAsideDirective  -->
<g id="edge26" class="edge">
<title>SharedModule&#45;&gt;MenuAsideDirective </title>
<path fill="none" stroke="#000000" stroke-dasharray="5,2" d="M3533.4465,-186C3604.0898,-186 3725.4637,-186 3725.4637,-186 3725.4637,-186 3725.4637,-205.8533 3725.4637,-205.8533"/>
<polygon fill="#000000" stroke="#000000" points="3721.9638,-205.8532 3725.4637,-215.8533 3728.9638,-205.8533 3721.9638,-205.8532"/>
</g>
<!-- MenuAsideOffcanvasDirective  -->
<g id="node28" class="node">
<title>MenuAsideOffcanvasDirective </title>
<polygon fill="#fb8072" stroke="#000000" points="3683.415,-252 3488.585,-252 3488.585,-216 3683.415,-216 3683.415,-252"/>
<text text-anchor="middle" x="3586" y="-229.8" font-family="Times,serif" font-size="14.00" fill="#000000">MenuAsideOffcanvasDirective </text>
</g>
<!-- SharedModule&#45;&gt;MenuAsideOffcanvasDirective  -->
<g id="edge27" class="edge">
<title>SharedModule&#45;&gt;MenuAsideOffcanvasDirective </title>
<path fill="none" stroke="#000000" stroke-dasharray="5,2" d="M3511.0019,-187.1061C3511.0019,-187.1061 3511.0019,-205.991 3511.0019,-205.991"/>
<polygon fill="#000000" stroke="#000000" points="3507.502,-205.9909 3511.0019,-215.991 3514.502,-205.991 3507.502,-205.9909"/>
</g>
<!-- MenuAsideToggleDirective  -->
<g id="node29" class="node">
<title>MenuAsideToggleDirective </title>
<polygon fill="#fb8072" stroke="#000000" points="3471.0568,-252 3294.9432,-252 3294.9432,-216 3471.0568,-216 3471.0568,-252"/>
<text text-anchor="middle" x="3383" y="-229.8" font-family="Times,serif" font-size="14.00" fill="#000000">MenuAsideToggleDirective </text>
</g>
<!-- SharedModule&#45;&gt;MenuAsideToggleDirective  -->
<g id="edge28" class="edge">
<title>SharedModule&#45;&gt;MenuAsideToggleDirective </title>
<path fill="none" stroke="#000000" stroke-dasharray="5,2" d="M3453.0335,-187.1061C3453.0335,-187.1061 3453.0335,-205.991 3453.0335,-205.991"/>
<polygon fill="#000000" stroke="#000000" points="3449.5336,-205.9909 3453.0335,-215.991 3456.5336,-205.991 3449.5336,-205.9909"/>
</g>
<!-- MenuHorizontalDirective  -->
<g id="node30" class="node">
<title>MenuHorizontalDirective </title>
<polygon fill="#fb8072" stroke="#000000" points="3277.1102,-252 3112.8898,-252 3112.8898,-216 3277.1102,-216 3277.1102,-252"/>
<text text-anchor="middle" x="3195" y="-229.8" font-family="Times,serif" font-size="14.00" fill="#000000">MenuHorizontalDirective </text>
</g>
<!-- SharedModule&#45;&gt;MenuHorizontalDirective  -->
<g id="edge29" class="edge">
<title>SharedModule&#45;&gt;MenuHorizontalDirective </title>
<path fill="none" stroke="#000000" stroke-dasharray="5,2" d="M3434.5075,-186C3357.8706,-186 3219.2201,-186 3219.2201,-186 3219.2201,-186 3219.2201,-205.8533 3219.2201,-205.8533"/>
<polygon fill="#000000" stroke="#000000" points="3215.7202,-205.8532 3219.2201,-215.8533 3222.7202,-205.8533 3215.7202,-205.8532"/>
</g>
<!-- MenuHorizontalOffcanvasDirective  -->
<g id="node31" class="node">
<title>MenuHorizontalOffcanvasDirective </title>
<polygon fill="#fb8072" stroke="#000000" points="3094.6267,-252 2873.3733,-252 2873.3733,-216 3094.6267,-216 3094.6267,-252"/>
<text text-anchor="middle" x="2984" y="-229.8" font-family="Times,serif" font-size="14.00" fill="#000000">MenuHorizontalOffcanvasDirective </text>
</g>
<!-- SharedModule&#45;&gt;MenuHorizontalOffcanvasDirective  -->
<g id="edge30" class="edge">
<title>SharedModule&#45;&gt;MenuHorizontalOffcanvasDirective </title>
<path fill="none" stroke="#000000" stroke-dasharray="5,2" d="M3434.6552,-185C3318.743,-185 3038.8039,-185 3038.8039,-185 3038.8039,-185 3038.8039,-205.7542 3038.8039,-205.7542"/>
<polygon fill="#000000" stroke="#000000" points="3035.304,-205.7542 3038.8039,-215.7542 3042.304,-205.7542 3035.304,-205.7542"/>
</g>
<!-- PortletDirective  -->
<g id="node32" class="node">
<title>PortletDirective </title>
<polygon fill="#fb8072" stroke="#000000" points="2855.4124,-252 2746.5876,-252 2746.5876,-216 2855.4124,-216 2855.4124,-252"/>
<text text-anchor="middle" x="2801" y="-229.8" font-family="Times,serif" font-size="14.00" fill="#000000">PortletDirective </text>
</g>
<!-- SharedModule&#45;&gt;PortletDirective  -->
<g id="edge31" class="edge">
<title>SharedModule&#45;&gt;PortletDirective </title>
<path fill="none" stroke="#000000" stroke-dasharray="5,2" d="M3434.712,-183C3284.4487,-183 2842.2948,-183 2842.2948,-183 2842.2948,-183 2842.2948,-205.8757 2842.2948,-205.8757"/>
<polygon fill="#000000" stroke="#000000" points="2838.7949,-205.8757 2842.2948,-215.8757 2845.7949,-205.8757 2838.7949,-205.8757"/>
</g>
<!-- QuickSearchDirective  -->
<g id="node33" class="node">
<title>QuickSearchDirective </title>
<polygon fill="#fb8072" stroke="#000000" points="2728.8816,-252 2585.1184,-252 2585.1184,-216 2728.8816,-216 2728.8816,-252"/>
<text text-anchor="middle" x="2657" y="-229.8" font-family="Times,serif" font-size="14.00" fill="#000000">QuickSearchDirective </text>
</g>
<!-- SharedModule&#45;&gt;QuickSearchDirective  -->
<g id="edge32" class="edge">
<title>SharedModule&#45;&gt;QuickSearchDirective </title>
<path fill="none" stroke="#000000" stroke-dasharray="5,2" d="M3434.6653,-182C3259.2115,-182 2675.8848,-182 2675.8848,-182 2675.8848,-182 2675.8848,-205.8129 2675.8848,-205.8129"/>
<polygon fill="#000000" stroke="#000000" points="2672.3849,-205.8129 2675.8848,-215.8129 2679.3849,-205.813 2672.3849,-205.8129"/>
</g>
<!-- QuickSidebarOffcanvasDirective  -->
<g id="node34" class="node">
<title>QuickSidebarOffcanvasDirective </title>
<polygon fill="#fb8072" stroke="#000000" points="2567.0738,-252 2360.9262,-252 2360.9262,-216 2567.0738,-216 2567.0738,-252"/>
<text text-anchor="middle" x="2464" y="-229.8" font-family="Times,serif" font-size="14.00" fill="#000000">QuickSidebarOffcanvasDirective </text>
</g>
<!-- SharedModule&#45;&gt;QuickSidebarOffcanvasDirective  -->
<g id="edge33" class="edge">
<title>SharedModule&#45;&gt;QuickSidebarOffcanvasDirective </title>
<path fill="none" stroke="#000000" stroke-dasharray="5,2" d="M3434.4586,-181C3230.1909,-181 2464,-181 2464,-181 2464,-181 2464,-205.7604 2464,-205.7604"/>
<polygon fill="#000000" stroke="#000000" points="2460.5001,-205.7604 2464,-215.7604 2467.5001,-205.7604 2460.5001,-205.7604"/>
</g>
<!-- SafePipe  -->
<g id="node35" class="node">
<title>SafePipe </title>
<polygon fill="#fb8072" stroke="#000000" points="2342.7607,-252 2273.2393,-252 2273.2393,-216 2342.7607,-216 2342.7607,-252"/>
<text text-anchor="middle" x="2308" y="-229.8" font-family="Times,serif" font-size="14.00" fill="#000000">SafePipe </text>
</g>
<!-- SharedModule&#45;&gt;SafePipe  -->
<g id="edge34" class="edge">
<title>SharedModule&#45;&gt;SafePipe </title>
<path fill="none" stroke="#000000" stroke-dasharray="5,2" d="M3434.6142,-179C3212.5534,-179 2317.3159,-179 2317.3159,-179 2317.3159,-179 2317.3159,-205.9909 2317.3159,-205.9909"/>
<polygon fill="#000000" stroke="#000000" points="2313.816,-205.9909 2317.3159,-215.9909 2320.816,-205.991 2313.816,-205.9909"/>
</g>
<!-- ScrollTopDirective  -->
<g id="node36" class="node">
<title>ScrollTopDirective </title>
<polygon fill="#fb8072" stroke="#000000" points="2255.5751,-252 2128.4249,-252 2128.4249,-216 2255.5751,-216 2255.5751,-252"/>
<text text-anchor="middle" x="2192" y="-229.8" font-family="Times,serif" font-size="14.00" fill="#000000">ScrollTopDirective </text>
</g>
<!-- SharedModule&#45;&gt;ScrollTopDirective  -->
<g id="edge35" class="edge">
<title>SharedModule&#45;&gt;ScrollTopDirective </title>
<path fill="none" stroke="#000000" stroke-dasharray="5,2" d="M3434.6918,-178C3201.0047,-178 2216.2492,-178 2216.2492,-178 2216.2492,-178 2216.2492,-205.973 2216.2492,-205.973"/>
<polygon fill="#000000" stroke="#000000" points="2212.7493,-205.973 2216.2492,-215.973 2219.7493,-205.973 2212.7493,-205.973"/>
</g>
<!-- TimeElapsedPipe  -->
<g id="node37" class="node">
<title>TimeElapsedPipe </title>
<polygon fill="#fb8072" stroke="#000000" points="2110.2535,-252 1991.7465,-252 1991.7465,-216 2110.2535,-216 2110.2535,-252"/>
<text text-anchor="middle" x="2051" y="-229.8" font-family="Times,serif" font-size="14.00" fill="#000000">TimeElapsedPipe </text>
</g>
<!-- SharedModule&#45;&gt;TimeElapsedPipe  -->
<g id="edge36" class="edge">
<title>SharedModule&#45;&gt;TimeElapsedPipe </title>
<path fill="none" stroke="#000000" stroke-dasharray="5,2" d="M3434.676,-177C3185.2774,-177 2074.9114,-177 2074.9114,-177 2074.9114,-177 2074.9114,-205.9648 2074.9114,-205.9648"/>
<polygon fill="#000000" stroke="#000000" points="2071.4115,-205.9648 2074.9114,-215.9648 2078.4115,-205.9649 2071.4115,-205.9648"/>
</g>
<!-- AclService -->
<g id="node38" class="node">
<title>AclService</title>
<ellipse fill="#fdb462" stroke="#000000" cx="3557" cy="-104" rx="53.8673" ry="18"/>
<text text-anchor="middle" x="3557" y="-99.8" font-family="Times,serif" font-size="14.00" fill="#000000">AclService</text>
</g>
<!-- AclService&#45;&gt;SharedModule -->
<g id="edge37" class="edge">
<title>AclService&#45;&gt;SharedModule</title>
<path fill="none" stroke="#000000" d="M3518.1387,-116.5327C3518.1387,-116.5327 3518.1387,-140.8507 3518.1387,-140.8507"/>
<polygon fill="#000000" stroke="#000000" points="3514.6388,-140.8506 3518.1387,-150.8507 3521.6388,-140.8507 3514.6388,-140.8506"/>
</g>
<!-- ClassInitService -->
<g id="node39" class="node">
<title>ClassInitService</title>
<ellipse fill="#fdb462" stroke="#000000" cx="3411" cy="-104" rx="74.1489" ry="18"/>
<text text-anchor="middle" x="3411" y="-99.8" font-family="Times,serif" font-size="14.00" fill="#000000">ClassInitService</text>
</g>
<!-- ClassInitService&#45;&gt;SharedModule -->
<g id="edge38" class="edge">
<title>ClassInitService&#45;&gt;SharedModule</title>
<path fill="none" stroke="#000000" d="M3460.0566,-117.7848C3460.0566,-117.7848 3460.0566,-140.5475 3460.0566,-140.5475"/>
<polygon fill="#000000" stroke="#000000" points="3456.5567,-140.5474 3460.0566,-150.5475 3463.5567,-140.5475 3456.5567,-140.5474"/>
</g>
<!-- ClipboardService -->
<g id="node40" class="node">
<title>ClipboardService</title>
<ellipse fill="#fdb462" stroke="#000000" cx="3240" cy="-104" rx="78.7298" ry="18"/>
<text text-anchor="middle" x="3240" y="-99.8" font-family="Times,serif" font-size="14.00" fill="#000000">ClipboardService</text>
</g>
<!-- ClipboardService&#45;&gt;SharedModule -->
<g id="edge39" class="edge">
<title>ClipboardService&#45;&gt;SharedModule</title>
<path fill="none" stroke="#000000" d="M3306.6684,-113.9159C3306.6684,-128.2338 3306.6684,-153 3306.6684,-153 3306.6684,-153 3424.6033,-153 3424.6033,-153"/>
<polygon fill="#000000" stroke="#000000" points="3424.6033,-156.5001 3434.6033,-153 3424.6032,-149.5001 3424.6033,-156.5001"/>
</g>
<!-- DataTableService -->
<g id="node41" class="node">
<title>DataTableService</title>
<ellipse fill="#fdb462" stroke="#000000" cx="3063" cy="-104" rx="80.4112" ry="18"/>
<text text-anchor="middle" x="3063" y="-99.8" font-family="Times,serif" font-size="14.00" fill="#000000">DataTableService</text>
</g>
<!-- DataTableService&#45;&gt;SharedModule -->
<g id="edge40" class="edge">
<title>DataTableService&#45;&gt;SharedModule</title>
<path fill="none" stroke="#000000" d="M3128.0751,-114.6037C3128.0751,-129.2808 3128.0751,-154 3128.0751,-154 3128.0751,-154 3424.5102,-154 3424.5102,-154"/>
<polygon fill="#000000" stroke="#000000" points="3424.5102,-157.5001 3434.5102,-154 3424.5101,-150.5001 3424.5102,-157.5001"/>
</g>
<!-- HeaderService -->
<g id="node42" class="node">
<title>HeaderService</title>
<ellipse fill="#fdb462" stroke="#000000" cx="2897" cy="-104" rx="67.7336" ry="18"/>
<text text-anchor="middle" x="2897" y="-99.8" font-family="Times,serif" font-size="14.00" fill="#000000">HeaderService</text>
</g>
<!-- HeaderService&#45;&gt;SharedModule -->
<g id="edge41" class="edge">
<title>HeaderService&#45;&gt;SharedModule</title>
<path fill="none" stroke="#000000" d="M2919.0267,-121.2663C2919.0267,-136.0618 2919.0267,-155 2919.0267,-155 2919.0267,-155 3424.3576,-155 3424.3576,-155"/>
<polygon fill="#000000" stroke="#000000" points="3424.3576,-158.5001 3434.3576,-155 3424.3575,-151.5001 3424.3576,-158.5001"/>
</g>
<!-- LayoutConfigService -->
<g id="node43" class="node">
<title>LayoutConfigService</title>
<ellipse fill="#fdb462" stroke="#000000" cx="2717" cy="-104" rx="94.3427" ry="18"/>
<text text-anchor="middle" x="2717" y="-99.8" font-family="Times,serif" font-size="14.00" fill="#000000">LayoutConfigService</text>
</g>
<!-- LayoutConfigService&#45;&gt;SharedModule -->
<g id="edge42" class="edge">
<title>LayoutConfigService&#45;&gt;SharedModule</title>
<path fill="none" stroke="#000000" d="M2778.8575,-117.6488C2778.8575,-133.3523 2778.8575,-157 2778.8575,-157 2778.8575,-157 3424.696,-157 3424.696,-157"/>
<polygon fill="#000000" stroke="#000000" points="3424.696,-160.5001 3434.696,-157 3424.696,-153.5001 3424.696,-160.5001"/>
</g>
<!-- LayoutConfigStorageService -->
<g id="node44" class="node">
<title>LayoutConfigStorageService</title>
<ellipse fill="#fdb462" stroke="#000000" cx="2481" cy="-104" rx="123.8369" ry="18"/>
<text text-anchor="middle" x="2481" y="-99.8" font-family="Times,serif" font-size="14.00" fill="#000000">LayoutConfigStorageService</text>
</g>
<!-- LayoutConfigStorageService&#45;&gt;SharedModule -->
<g id="edge43" class="edge">
<title>LayoutConfigStorageService&#45;&gt;SharedModule</title>
<path fill="none" stroke="#000000" d="M2594.8638,-111.0596C2594.8638,-125.6969 2594.8638,-158 2594.8638,-158 2594.8638,-158 3424.6108,-158 3424.6108,-158"/>
<polygon fill="#000000" stroke="#000000" points="3424.6108,-161.5001 3434.6108,-158 3424.6107,-154.5001 3424.6108,-161.5001"/>
</g>
<!-- LayoutRefService -->
<g id="node45" class="node">
<title>LayoutRefService</title>
<ellipse fill="#fdb462" stroke="#000000" cx="2258" cy="-104" rx="81.0782" ry="18"/>
<text text-anchor="middle" x="2258" y="-99.8" font-family="Times,serif" font-size="14.00" fill="#000000">LayoutRefService</text>
</g>
<!-- LayoutRefService&#45;&gt;SharedModule -->
<g id="edge44" class="edge">
<title>LayoutRefService&#45;&gt;SharedModule</title>
<path fill="none" stroke="#000000" d="M2295.3429,-120.2043C2295.3429,-136.428 2295.3429,-159 2295.3429,-159 2295.3429,-159 3424.4382,-159 3424.4382,-159"/>
<polygon fill="#000000" stroke="#000000" points="3424.4383,-162.5001 3434.4382,-159 3424.4382,-155.5001 3424.4383,-162.5001"/>
</g>
<!-- LogsService -->
<g id="node46" class="node">
<title>LogsService</title>
<ellipse fill="#fdb462" stroke="#000000" cx="2099" cy="-104" rx="59.1083" ry="18"/>
<text text-anchor="middle" x="2099" y="-99.8" font-family="Times,serif" font-size="14.00" fill="#000000">LogsService</text>
</g>
<!-- LogsService&#45;&gt;SharedModule -->
<g id="edge45" class="edge">
<title>LogsService&#45;&gt;SharedModule</title>
<path fill="none" stroke="#000000" d="M2143.2583,-116.0882C2143.2583,-132.8201 2143.2583,-161 2143.2583,-161 2143.2583,-161 3424.6922,-161 3424.6922,-161"/>
<polygon fill="#000000" stroke="#000000" points="3424.6923,-164.5001 3434.6922,-161 3424.6922,-157.5001 3424.6923,-164.5001"/>
</g>
<!-- MenuAsideService -->
<g id="node47" class="node">
<title>MenuAsideService</title>
<ellipse fill="#fdb462" stroke="#000000" cx="1937" cy="-104" rx="85.0908" ry="18"/>
<text text-anchor="middle" x="1937" y="-99.8" font-family="Times,serif" font-size="14.00" fill="#000000">MenuAsideService</text>
</g>
<!-- MenuAsideService&#45;&gt;SharedModule -->
<g id="edge46" class="edge">
<title>MenuAsideService&#45;&gt;SharedModule</title>
<path fill="none" stroke="#000000" d="M2006.9594,-114.3692C2006.9594,-131.0521 2006.9594,-162 2006.9594,-162 2006.9594,-162 3424.4339,-162 3424.4339,-162"/>
<polygon fill="#000000" stroke="#000000" points="3424.4339,-165.5001 3434.4339,-162 3424.4338,-158.5001 3424.4339,-165.5001"/>
</g>
<!-- MenuConfigService -->
<g id="node48" class="node">
<title>MenuConfigService</title>
<ellipse fill="#fdb462" stroke="#000000" cx="1745" cy="-104" rx="89.1877" ry="18"/>
<text text-anchor="middle" x="1745" y="-99.8" font-family="Times,serif" font-size="14.00" fill="#000000">MenuConfigService</text>
</g>
<!-- MenuConfigService&#45;&gt;SharedModule -->
<g id="edge47" class="edge">
<title>MenuConfigService&#45;&gt;SharedModule</title>
<path fill="none" stroke="#000000" d="M1745,-122.0225C1745,-139.3734 1745,-163 1745,-163 1745,-163 3424.7563,-163 3424.7563,-163"/>
<polygon fill="#000000" stroke="#000000" points="3424.7564,-166.5001 3434.7563,-163 3424.7563,-159.5001 3424.7564,-166.5001"/>
</g>
<!-- MenuHorizontalService -->
<g id="node49" class="node">
<title>MenuHorizontalService</title>
<ellipse fill="#fdb462" stroke="#000000" cx="1534" cy="-104" rx="103.6315" ry="18"/>
<text text-anchor="middle" x="1534" y="-99.8" font-family="Times,serif" font-size="14.00" fill="#000000">MenuHorizontalService</text>
</g>
<!-- MenuHorizontalService&#45;&gt;SharedModule -->
<g id="edge48" class="edge">
<title>MenuHorizontalService&#45;&gt;SharedModule</title>
<path fill="none" stroke="#000000" d="M1534,-122.302C1534,-140.2699 1534,-165 1534,-165 1534,-165 3424.3312,-165 3424.3312,-165"/>
<polygon fill="#000000" stroke="#000000" points="3424.3312,-168.5001 3434.3312,-165 3424.3311,-161.5001 3424.3312,-168.5001"/>
</g>
<!-- MessengerService -->
<g id="node50" class="node">
<title>MessengerService</title>
<ellipse fill="#fdb462" stroke="#000000" cx="1330" cy="-104" rx="81.6384" ry="18"/>
<text text-anchor="middle" x="1330" y="-99.8" font-family="Times,serif" font-size="14.00" fill="#000000">MessengerService</text>
</g>
<!-- MessengerService&#45;&gt;SharedModule -->
<g id="edge49" class="edge">
<title>MessengerService&#45;&gt;SharedModule</title>
<path fill="none" stroke="#000000" d="M1330,-122.2667C1330,-140.5552 1330,-166 1330,-166 1330,-166 3424.7053,-166 3424.7053,-166"/>
<polygon fill="#000000" stroke="#000000" points="3424.7053,-169.5001 3434.7053,-166 3424.7052,-162.5001 3424.7053,-169.5001"/>
</g>
<!-- PageConfigService -->
<g id="node51" class="node">
<title>PageConfigService</title>
<ellipse fill="#fdb462" stroke="#000000" cx="1145" cy="-104" rx="85.6725" ry="18"/>
<text text-anchor="middle" x="1145" y="-99.8" font-family="Times,serif" font-size="14.00" fill="#000000">PageConfigService</text>
</g>
<!-- PageConfigService&#45;&gt;SharedModule -->
<g id="edge50" class="edge">
<title>PageConfigService&#45;&gt;SharedModule</title>
<path fill="none" stroke="#000000" d="M1145,-122.2222C1145,-140.8285 1145,-167 1145,-167 1145,-167 3424.607,-167 3424.607,-167"/>
<polygon fill="#000000" stroke="#000000" points="3424.607,-170.5001 3434.607,-167 3424.607,-163.5001 3424.607,-170.5001"/>
</g>
<!-- QuickSearchService -->
<g id="node52" class="node">
<title>QuickSearchService</title>
<ellipse fill="#fdb462" stroke="#000000" cx="952" cy="-104" rx="89.7248" ry="18"/>
<text text-anchor="middle" x="952" y="-99.8" font-family="Times,serif" font-size="14.00" fill="#000000">QuickSearchService</text>
</g>
<!-- QuickSearchService&#45;&gt;SharedModule -->
<g id="edge51" class="edge">
<title>QuickSearchService&#45;&gt;SharedModule</title>
<path fill="none" stroke="#000000" d="M952,-122.1061C952,-141.3391 952,-169 952,-169 952,-169 3424.5577,-169 3424.5577,-169"/>
<polygon fill="#000000" stroke="#000000" points="3424.5577,-172.5001 3434.5577,-169 3424.5576,-165.5001 3424.5577,-172.5001"/>
</g>
<!-- SplashScreenService -->
<g id="node53" class="node">
<title>SplashScreenService</title>
<ellipse fill="#fdb462" stroke="#000000" cx="752" cy="-104" rx="92.0296" ry="18"/>
<text text-anchor="middle" x="752" y="-99.8" font-family="Times,serif" font-size="14.00" fill="#000000">SplashScreenService</text>
</g>
<!-- SplashScreenService&#45;&gt;SharedModule -->
<g id="edge52" class="edge">
<title>SplashScreenService&#45;&gt;SharedModule</title>
<path fill="none" stroke="#000000" d="M752,-122.0348C752,-141.5762 752,-170 752,-170 752,-170 3424.5433,-170 3424.5433,-170"/>
<polygon fill="#000000" stroke="#000000" points="3424.5433,-173.5001 3434.5433,-170 3424.5432,-166.5001 3424.5433,-173.5001"/>
</g>
<!-- SubheaderService -->
<g id="node54" class="node">
<title>SubheaderService</title>
<ellipse fill="#fdb462" stroke="#000000" cx="561" cy="-104" rx="80.9988" ry="18"/>
<text text-anchor="middle" x="561" y="-99.8" font-family="Times,serif" font-size="14.00" fill="#000000">SubheaderService</text>
</g>
<!-- SubheaderService&#45;&gt;SharedModule -->
<g id="edge53" class="edge">
<title>SubheaderService&#45;&gt;SharedModule</title>
<path fill="none" stroke="#000000" d="M561,-122.308C561,-142.1455 561,-171 561,-171 561,-171 3424.4923,-171 3424.4923,-171"/>
<polygon fill="#000000" stroke="#000000" points="3424.4923,-174.5001 3434.4923,-171 3424.4923,-167.5001 3424.4923,-174.5001"/>
</g>
<!-- TranslationService -->
<g id="node55" class="node">
<title>TranslationService</title>
<ellipse fill="#fdb462" stroke="#000000" cx="378" cy="-104" rx="83.9431" ry="18"/>
<text text-anchor="middle" x="378" y="-99.8" font-family="Times,serif" font-size="14.00" fill="#000000">TranslationService</text>
</g>
<!-- TranslationService&#45;&gt;SharedModule -->
<g id="edge54" class="edge">
<title>TranslationService&#45;&gt;SharedModule</title>
<path fill="none" stroke="#000000" d="M378,-122.1289C378,-142.5724 378,-173 378,-173 378,-173 3424.585,-173 3424.585,-173"/>
<polygon fill="#000000" stroke="#000000" points="3424.5851,-176.5001 3434.585,-173 3424.585,-169.5001 3424.5851,-176.5001"/>
</g>
<!-- UserService -->
<g id="node56" class="node">
<title>UserService</title>
<ellipse fill="#fdb462" stroke="#000000" cx="218" cy="-104" rx="58.4415" ry="18"/>
<text text-anchor="middle" x="218" y="-99.8" font-family="Times,serif" font-size="14.00" fill="#000000">UserService</text>
</g>
<!-- UserService&#45;&gt;SharedModule -->
<g id="edge55" class="edge">
<title>UserService&#45;&gt;SharedModule</title>
<path fill="none" stroke="#000000" d="M218,-122.0267C218,-142.7672 218,-174 218,-174 218,-174 3424.6534,-174 3424.6534,-174"/>
<polygon fill="#000000" stroke="#000000" points="3424.6534,-177.5001 3434.6534,-174 3424.6533,-170.5001 3424.6534,-177.5001"/>
</g>
<!-- UtilsService -->
<g id="node57" class="node">
<title>UtilsService</title>
<ellipse fill="#fdb462" stroke="#000000" cx="83" cy="-104" rx="58.5405" ry="18"/>
<text text-anchor="middle" x="83" y="-99.8" font-family="Times,serif" font-size="14.00" fill="#000000">UtilsService</text>
</g>
<!-- UtilsService&#45;&gt;SharedModule -->
<g id="edge56" class="edge">
<title>UtilsService&#45;&gt;SharedModule</title>
<path fill="none" stroke="#000000" d="M83,-122.2843C83,-143.3211 83,-175 83,-175 83,-175 3424.6114,-175 3424.6114,-175"/>
<polygon fill="#000000" stroke="#000000" points="3424.6114,-178.5001 3434.6114,-175 3424.6114,-171.5001 3424.6114,-178.5001"/>
</g>
</g>
</svg>
