<?xml version="1.0" encoding="UTF-8" standalone="no"?>
<!DOCTYPE svg PUBLIC "-//W3C//DTD SVG 1.1//EN"
 "http://www.w3.org/Graphics/SVG/1.1/DTD/svg11.dtd">
<!-- Generated by graphviz version 2.40.1 (20161225.0304)
 -->
<!-- Title: dependencies Pages: 1 -->
<svg width="508pt" height="284pt"
 viewBox="0.00 0.00 508.00 284.00" xmlns="http://www.w3.org/2000/svg" xmlns:xlink="http://www.w3.org/1999/xlink">
<g id="graph0" class="graph" transform="scale(1 1) rotate(0) translate(4 280)">
<title>dependencies</title>
<polygon fill="#ffffff" stroke="transparent" points="-4,4 -4,-280 504,-280 504,4 -4,4"/>
<text text-anchor="start" x="229.0091" y="-42.4" font-family="sans-serif" font-weight="bold" font-size="14.00" fill="#000000">Legend</text>
<polygon fill="#ffffb3" stroke="transparent" points="16,-10 16,-30 36,-30 36,-10 16,-10"/>
<text text-anchor="start" x="39.629" y="-15.4" font-family="sans-serif" font-size="14.00" fill="#000000"> &#160;Declarations</text>
<polygon fill="#8dd3c7" stroke="transparent" points="129,-10 129,-30 149,-30 149,-10 129,-10"/>
<text text-anchor="start" x="152.7251" y="-15.4" font-family="sans-serif" font-size="14.00" fill="#000000"> &#160;Module</text>
<polygon fill="#80b1d3" stroke="transparent" points="215,-10 215,-30 235,-30 235,-10 215,-10"/>
<text text-anchor="start" x="238.7812" y="-15.4" font-family="sans-serif" font-size="14.00" fill="#000000"> &#160;Bootstrap</text>
<polygon fill="#fdb462" stroke="transparent" points="312,-10 312,-30 332,-30 332,-10 312,-10"/>
<text text-anchor="start" x="335.6732" y="-15.4" font-family="sans-serif" font-size="14.00" fill="#000000"> &#160;Providers</text>
<polygon fill="#fb8072" stroke="transparent" points="408,-10 408,-30 428,-30 428,-10 408,-10"/>
<text text-anchor="start" x="431.7258" y="-15.4" font-family="sans-serif" font-size="14.00" fill="#000000"> &#160;Exports</text>
<g id="clust1" class="cluster">
<title>cluster_ListTimelineModule</title>
<polygon fill="none" stroke="#000000" stroke-dasharray="1,5" points="8,-70 8,-268 492,-268 492,-70 8,-70"/>
</g>
<g id="clust2" class="cluster">
<title>cluster_ListTimelineModule_declarations</title>
<polygon fill="none" stroke="#000000" points="138,-78 138,-130 484,-130 484,-78 138,-78"/>
</g>
<g id="clust5" class="cluster">
<title>cluster_ListTimelineModule_imports</title>
<polygon fill="none" stroke="#000000" points="16,-78 16,-130 130,-130 130,-78 16,-78"/>
</g>
<g id="clust6" class="cluster">
<title>cluster_ListTimelineModule_exports</title>
<polygon fill="none" stroke="#000000" points="74,-208 74,-260 427,-260 427,-208 74,-208"/>
</g>
<!-- ListTimelineComponent -->
<g id="node1" class="node">
<title>ListTimelineComponent</title>
<polygon fill="#ffffb3" stroke="#000000" points="475.6554,-122 322.3446,-122 322.3446,-86 475.6554,-86 475.6554,-122"/>
<text text-anchor="middle" x="399" y="-99.8" font-family="Times,serif" font-size="14.00" fill="#000000">ListTimelineComponent</text>
</g>
<!-- ListTimelineModule -->
<g id="node3" class="node">
<title>ListTimelineModule</title>
<polygon fill="#8dd3c7" stroke="#000000" points="290.8725,-187 287.8725,-191 266.8725,-191 263.8725,-187 159.1275,-187 159.1275,-151 290.8725,-151 290.8725,-187"/>
<text text-anchor="middle" x="225" y="-164.8" font-family="Times,serif" font-size="14.00" fill="#000000">ListTimelineModule</text>
</g>
<!-- ListTimelineComponent&#45;&gt;ListTimelineModule -->
<g id="edge1" class="edge">
<title>ListTimelineComponent&#45;&gt;ListTimelineModule</title>
<path fill="none" stroke="#000000" d="M370.375,-122.1061C370.375,-141.3391 370.375,-169 370.375,-169 370.375,-169 300.8819,-169 300.8819,-169"/>
<polygon fill="#000000" stroke="#000000" points="300.882,-165.5001 290.8819,-169 300.8819,-172.5001 300.882,-165.5001"/>
</g>
<!-- TimelineItemComponent -->
<g id="node2" class="node">
<title>TimelineItemComponent</title>
<polygon fill="#ffffb3" stroke="#000000" points="303.5337,-122 146.4663,-122 146.4663,-86 303.5337,-86 303.5337,-122"/>
<text text-anchor="middle" x="225" y="-99.8" font-family="Times,serif" font-size="14.00" fill="#000000">TimelineItemComponent</text>
</g>
<!-- TimelineItemComponent&#45;&gt;ListTimelineModule -->
<g id="edge2" class="edge">
<title>TimelineItemComponent&#45;&gt;ListTimelineModule</title>
<path fill="none" stroke="#000000" d="M225,-122.1061C225,-122.1061 225,-140.991 225,-140.991"/>
<polygon fill="#000000" stroke="#000000" points="221.5001,-140.9909 225,-150.991 228.5001,-140.991 221.5001,-140.9909"/>
</g>
<!-- ListTimelineComponent  -->
<g id="node5" class="node">
<title>ListTimelineComponent </title>
<polygon fill="#fb8072" stroke="#000000" points="418.6551,-252 261.3449,-252 261.3449,-216 418.6551,-216 418.6551,-252"/>
<text text-anchor="middle" x="340" y="-229.8" font-family="Times,serif" font-size="14.00" fill="#000000">ListTimelineComponent </text>
</g>
<!-- ListTimelineModule&#45;&gt;ListTimelineComponent  -->
<g id="edge4" class="edge">
<title>ListTimelineModule&#45;&gt;ListTimelineComponent </title>
<path fill="none" stroke="#000000" stroke-dasharray="5,2" d="M276.1794,-187.1061C276.1794,-187.1061 276.1794,-205.991 276.1794,-205.991"/>
<polygon fill="#000000" stroke="#000000" points="272.6794,-205.9909 276.1794,-215.991 279.6794,-205.991 272.6794,-205.9909"/>
</g>
<!-- TimelineItemComponent  -->
<g id="node6" class="node">
<title>TimelineItemComponent </title>
<polygon fill="#fb8072" stroke="#000000" points="243.533,-252 82.467,-252 82.467,-216 243.533,-216 243.533,-252"/>
<text text-anchor="middle" x="163" y="-229.8" font-family="Times,serif" font-size="14.00" fill="#000000">TimelineItemComponent </text>
</g>
<!-- ListTimelineModule&#45;&gt;TimelineItemComponent  -->
<g id="edge5" class="edge">
<title>ListTimelineModule&#45;&gt;TimelineItemComponent </title>
<path fill="none" stroke="#000000" stroke-dasharray="5,2" d="M201.2902,-187.1061C201.2902,-187.1061 201.2902,-205.991 201.2902,-205.991"/>
<polygon fill="#000000" stroke="#000000" points="197.7902,-205.9909 201.2902,-215.991 204.7902,-205.991 197.7902,-205.9909"/>
</g>
<!-- SharedModule -->
<g id="node4" class="node">
<title>SharedModule</title>
<polygon fill="#8dd3c7" stroke="#000000" points="122.4231,-122 119.4231,-126 98.4231,-126 95.4231,-122 23.5769,-122 23.5769,-86 122.4231,-86 122.4231,-122"/>
<text text-anchor="middle" x="73" y="-99.8" font-family="Times,serif" font-size="14.00" fill="#000000">SharedModule</text>
</g>
<!-- SharedModule&#45;&gt;ListTimelineModule -->
<g id="edge3" class="edge">
<title>SharedModule&#45;&gt;ListTimelineModule</title>
<path fill="none" stroke="#000000" d="M102.3473,-122.1061C102.3473,-141.3391 102.3473,-169 102.3473,-169 102.3473,-169 149.0063,-169 149.0063,-169"/>
<polygon fill="#000000" stroke="#000000" points="149.0064,-172.5001 159.0063,-169 149.0063,-165.5001 149.0064,-172.5001"/>
</g>
</g>
</svg>
