<?xml version="1.0" encoding="UTF-8" standalone="no"?>
<!DOCTYPE svg PUBLIC "-//W3C//DTD SVG 1.1//EN"
 "http://www.w3.org/Graphics/SVG/1.1/DTD/svg11.dtd">
<!-- Generated by graphviz version 2.40.1 (20161225.0304)
 -->
<!-- Title: dependencies Pages: 1 -->
<svg width="672pt" height="284pt"
 viewBox="0.00 0.00 672.00 284.00" xmlns="http://www.w3.org/2000/svg" xmlns:xlink="http://www.w3.org/1999/xlink">
<g id="graph0" class="graph" transform="scale(1 1) rotate(0) translate(4 280)">
<title>dependencies</title>
<polygon fill="#ffffff" stroke="transparent" points="-4,4 -4,-280 668,-280 668,4 -4,4"/>
<text text-anchor="start" x="311.0091" y="-42.4" font-family="sans-serif" font-weight="bold" font-size="14.00" fill="#000000">Legend</text>
<polygon fill="#ffffb3" stroke="transparent" points="98,-10 98,-30 118,-30 118,-10 98,-10"/>
<text text-anchor="start" x="121.629" y="-15.4" font-family="sans-serif" font-size="14.00" fill="#000000"> &#160;Declarations</text>
<polygon fill="#8dd3c7" stroke="transparent" points="211,-10 211,-30 231,-30 231,-10 211,-10"/>
<text text-anchor="start" x="234.7251" y="-15.4" font-family="sans-serif" font-size="14.00" fill="#000000"> &#160;Module</text>
<polygon fill="#80b1d3" stroke="transparent" points="297,-10 297,-30 317,-30 317,-10 297,-10"/>
<text text-anchor="start" x="320.7812" y="-15.4" font-family="sans-serif" font-size="14.00" fill="#000000"> &#160;Bootstrap</text>
<polygon fill="#fdb462" stroke="transparent" points="394,-10 394,-30 414,-30 414,-10 394,-10"/>
<text text-anchor="start" x="417.6732" y="-15.4" font-family="sans-serif" font-size="14.00" fill="#000000"> &#160;Providers</text>
<polygon fill="#fb8072" stroke="transparent" points="490,-10 490,-30 510,-30 510,-10 490,-10"/>
<text text-anchor="start" x="513.7258" y="-15.4" font-family="sans-serif" font-size="14.00" fill="#000000"> &#160;Exports</text>
<g id="clust1" class="cluster">
<title>cluster_MessengerModule</title>
<polygon fill="none" stroke="#000000" stroke-dasharray="1,5" points="8,-70 8,-268 656,-268 656,-70 8,-70"/>
</g>
<g id="clust2" class="cluster">
<title>cluster_MessengerModule_declarations</title>
<polygon fill="none" stroke="#000000" points="138,-78 138,-130 648,-130 648,-78 138,-78"/>
</g>
<g id="clust6" class="cluster">
<title>cluster_MessengerModule_imports</title>
<polygon fill="none" stroke="#000000" points="16,-78 16,-130 130,-130 130,-78 16,-78"/>
</g>
<g id="clust7" class="cluster">
<title>cluster_MessengerModule_exports</title>
<polygon fill="none" stroke="#000000" points="71,-208 71,-260 592,-260 592,-208 71,-208"/>
</g>
<!-- MessengerComponent -->
<g id="node1" class="node">
<title>MessengerComponent</title>
<polygon fill="#ffffb3" stroke="#000000" points="639.9706,-122 498.0294,-122 498.0294,-86 639.9706,-86 639.9706,-122"/>
<text text-anchor="middle" x="569" y="-99.8" font-family="Times,serif" font-size="14.00" fill="#000000">MessengerComponent</text>
</g>
<!-- MessengerModule -->
<g id="node4" class="node">
<title>MessengerModule</title>
<polygon fill="#8dd3c7" stroke="#000000" points="402.1881,-187 399.1881,-191 378.1881,-191 375.1881,-187 281.8119,-187 281.8119,-151 402.1881,-151 402.1881,-187"/>
<text text-anchor="middle" x="342" y="-164.8" font-family="Times,serif" font-size="14.00" fill="#000000">MessengerModule</text>
</g>
<!-- MessengerComponent&#45;&gt;MessengerModule -->
<g id="edge1" class="edge">
<title>MessengerComponent&#45;&gt;MessengerModule</title>
<path fill="none" stroke="#000000" d="M540.875,-122.0225C540.875,-139.3734 540.875,-163 540.875,-163 540.875,-163 412.2088,-163 412.2088,-163"/>
<polygon fill="#000000" stroke="#000000" points="412.2088,-159.5001 402.2088,-163 412.2087,-166.5001 412.2088,-159.5001"/>
</g>
<!-- MessengerInComponent -->
<g id="node2" class="node">
<title>MessengerInComponent</title>
<polygon fill="#ffffb3" stroke="#000000" points="479.6316,-122 326.3684,-122 326.3684,-86 479.6316,-86 479.6316,-122"/>
<text text-anchor="middle" x="403" y="-99.8" font-family="Times,serif" font-size="14.00" fill="#000000">MessengerInComponent</text>
</g>
<!-- MessengerInComponent&#45;&gt;MessengerModule -->
<g id="edge2" class="edge">
<title>MessengerInComponent&#45;&gt;MessengerModule</title>
<path fill="none" stroke="#000000" d="M364.1392,-122.1061C364.1392,-122.1061 364.1392,-140.991 364.1392,-140.991"/>
<polygon fill="#000000" stroke="#000000" points="360.6393,-140.9909 364.1392,-150.991 367.6393,-140.991 360.6393,-140.9909"/>
</g>
<!-- MessengerOutComponent -->
<g id="node3" class="node">
<title>MessengerOutComponent</title>
<polygon fill="#ffffb3" stroke="#000000" points="308.4678,-122 145.5322,-122 145.5322,-86 308.4678,-86 308.4678,-122"/>
<text text-anchor="middle" x="227" y="-99.8" font-family="Times,serif" font-size="14.00" fill="#000000">MessengerOutComponent</text>
</g>
<!-- MessengerOutComponent&#45;&gt;MessengerModule -->
<g id="edge3" class="edge">
<title>MessengerOutComponent&#45;&gt;MessengerModule</title>
<path fill="none" stroke="#000000" d="M295.195,-122.1061C295.195,-122.1061 295.195,-140.991 295.195,-140.991"/>
<polygon fill="#000000" stroke="#000000" points="291.695,-140.9909 295.195,-150.991 298.695,-140.991 291.695,-140.9909"/>
</g>
<!-- MessengerComponent  -->
<g id="node6" class="node">
<title>MessengerComponent </title>
<polygon fill="#fb8072" stroke="#000000" points="583.9714,-252 438.0286,-252 438.0286,-216 583.9714,-216 583.9714,-252"/>
<text text-anchor="middle" x="511" y="-229.8" font-family="Times,serif" font-size="14.00" fill="#000000">MessengerComponent </text>
</g>
<!-- MessengerModule&#45;&gt;MessengerComponent  -->
<g id="edge5" class="edge">
<title>MessengerModule&#45;&gt;MessengerComponent </title>
<path fill="none" stroke="#000000" stroke-dasharray="5,2" d="M402.2343,-175C430.9119,-175 459.0402,-175 459.0402,-175 459.0402,-175 459.0402,-205.9775 459.0402,-205.9775"/>
<polygon fill="#000000" stroke="#000000" points="455.5402,-205.9774 459.0402,-215.9775 462.5402,-205.9775 455.5402,-205.9774"/>
</g>
<!-- MessengerInComponent  -->
<g id="node7" class="node">
<title>MessengerInComponent </title>
<polygon fill="#fb8072" stroke="#000000" points="420.6313,-252 263.3687,-252 263.3687,-216 420.6313,-216 420.6313,-252"/>
<text text-anchor="middle" x="342" y="-229.8" font-family="Times,serif" font-size="14.00" fill="#000000">MessengerInComponent </text>
</g>
<!-- MessengerModule&#45;&gt;MessengerInComponent  -->
<g id="edge6" class="edge">
<title>MessengerModule&#45;&gt;MessengerInComponent </title>
<path fill="none" stroke="#000000" stroke-dasharray="5,2" d="M342,-187.1061C342,-187.1061 342,-205.991 342,-205.991"/>
<polygon fill="#000000" stroke="#000000" points="338.5001,-205.9909 342,-215.991 345.5001,-205.991 338.5001,-205.9909"/>
</g>
<!-- MessengerOutComponent  -->
<g id="node8" class="node">
<title>MessengerOutComponent </title>
<polygon fill="#fb8072" stroke="#000000" points="245.4685,-252 78.5315,-252 78.5315,-216 245.4685,-216 245.4685,-252"/>
<text text-anchor="middle" x="162" y="-229.8" font-family="Times,serif" font-size="14.00" fill="#000000">MessengerOutComponent </text>
</g>
<!-- MessengerModule&#45;&gt;MessengerOutComponent  -->
<g id="edge7" class="edge">
<title>MessengerModule&#45;&gt;MessengerOutComponent </title>
<path fill="none" stroke="#000000" stroke-dasharray="5,2" d="M281.5155,-175C241.126,-175 195.375,-175 195.375,-175 195.375,-175 195.375,-205.9775 195.375,-205.9775"/>
<polygon fill="#000000" stroke="#000000" points="191.8751,-205.9774 195.375,-215.9775 198.8751,-205.9775 191.8751,-205.9774"/>
</g>
<!-- SharedModule -->
<g id="node5" class="node">
<title>SharedModule</title>
<polygon fill="#8dd3c7" stroke="#000000" points="122.4231,-122 119.4231,-126 98.4231,-126 95.4231,-122 23.5769,-122 23.5769,-86 122.4231,-86 122.4231,-122"/>
<text text-anchor="middle" x="73" y="-99.8" font-family="Times,serif" font-size="14.00" fill="#000000">SharedModule</text>
</g>
<!-- SharedModule&#45;&gt;MessengerModule -->
<g id="edge4" class="edge">
<title>SharedModule&#45;&gt;MessengerModule</title>
<path fill="none" stroke="#000000" d="M100.4886,-122.0225C100.4886,-139.3734 100.4886,-163 100.4886,-163 100.4886,-163 271.6795,-163 271.6795,-163"/>
<polygon fill="#000000" stroke="#000000" points="271.6795,-166.5001 281.6795,-163 271.6794,-159.5001 271.6795,-166.5001"/>
</g>
</g>
</svg>
