<?xml version="1.0" encoding="UTF-8" standalone="no"?>
<!DOCTYPE svg PUBLIC "-//W3C//DTD SVG 1.1//EN"
 "http://www.w3.org/Graphics/SVG/1.1/DTD/svg11.dtd">
<!-- Generated by graphviz version 2.40.1 (20161225.0304)
 -->
<!-- Title: dependencies Pages: 1 -->
<svg width="878pt" height="284pt"
 viewBox="0.00 0.00 878.00 284.00" xmlns="http://www.w3.org/2000/svg" xmlns:xlink="http://www.w3.org/1999/xlink">
<g id="graph0" class="graph" transform="scale(1 1) rotate(0) translate(4 280)">
<title>dependencies</title>
<polygon fill="#ffffff" stroke="transparent" points="-4,4 -4,-280 874,-280 874,4 -4,4"/>
<text text-anchor="start" x="414.0091" y="-42.4" font-family="sans-serif" font-weight="bold" font-size="14.00" fill="#000000">Legend</text>
<polygon fill="#ffffb3" stroke="transparent" points="201,-10 201,-30 221,-30 221,-10 201,-10"/>
<text text-anchor="start" x="224.629" y="-15.4" font-family="sans-serif" font-size="14.00" fill="#000000"> &#160;Declarations</text>
<polygon fill="#8dd3c7" stroke="transparent" points="314,-10 314,-30 334,-30 334,-10 314,-10"/>
<text text-anchor="start" x="337.7251" y="-15.4" font-family="sans-serif" font-size="14.00" fill="#000000"> &#160;Module</text>
<polygon fill="#80b1d3" stroke="transparent" points="400,-10 400,-30 420,-30 420,-10 400,-10"/>
<text text-anchor="start" x="423.7812" y="-15.4" font-family="sans-serif" font-size="14.00" fill="#000000"> &#160;Bootstrap</text>
<polygon fill="#fdb462" stroke="transparent" points="497,-10 497,-30 517,-30 517,-10 497,-10"/>
<text text-anchor="start" x="520.6732" y="-15.4" font-family="sans-serif" font-size="14.00" fill="#000000"> &#160;Providers</text>
<polygon fill="#fb8072" stroke="transparent" points="593,-10 593,-30 613,-30 613,-10 593,-10"/>
<text text-anchor="start" x="616.7258" y="-15.4" font-family="sans-serif" font-size="14.00" fill="#000000"> &#160;Exports</text>
<g id="clust1" class="cluster">
<title>cluster_AppModule</title>
<polygon fill="none" stroke="#000000" stroke-dasharray="1,5" points="8,-70 8,-268 862,-268 862,-70 8,-70"/>
</g>
<g id="clust2" class="cluster">
<title>cluster_AppModule_declarations</title>
<polygon fill="none" stroke="#000000" points="732,-78 732,-130 854,-130 854,-78 732,-78"/>
</g>
<g id="clust4" class="cluster">
<title>cluster_AppModule_imports</title>
<polygon fill="none" stroke="#000000" points="16,-78 16,-130 724,-130 724,-78 16,-78"/>
</g>
<g id="clust6" class="cluster">
<title>cluster_AppModule_bootstrap</title>
<polygon fill="none" stroke="#000000" points="353,-208 353,-260 477,-260 477,-208 353,-208"/>
</g>
<!-- AppComponent -->
<g id="node1" class="node">
<title>AppComponent</title>
<polygon fill="#ffffb3" stroke="#000000" points="845.9399,-122 740.0601,-122 740.0601,-86 845.9399,-86 845.9399,-122"/>
<text text-anchor="middle" x="793" y="-99.8" font-family="Times,serif" font-size="14.00" fill="#000000">AppComponent</text>
</g>
<!-- AppModule -->
<g id="node2" class="node">
<title>AppModule</title>
<polygon fill="#8dd3c7" stroke="#000000" points="456.6571,-187 453.6571,-191 432.6571,-191 429.6571,-187 373.3429,-187 373.3429,-151 456.6571,-151 456.6571,-187"/>
<text text-anchor="middle" x="415" y="-164.8" font-family="Times,serif" font-size="14.00" fill="#000000">AppModule</text>
</g>
<!-- AppComponent&#45;&gt;AppModule -->
<g id="edge1" class="edge">
<title>AppComponent&#45;&gt;AppModule</title>
<path fill="none" stroke="#000000" d="M793,-122.2921C793,-144.2057 793,-178 793,-178 793,-178 466.8969,-178 466.8969,-178"/>
<polygon fill="#000000" stroke="#000000" points="466.8969,-174.5001 456.8969,-178 466.8968,-181.5001 466.8969,-174.5001"/>
</g>
<!-- AppComponent  -->
<g id="node9" class="node">
<title>AppComponent </title>
<polygon fill="#80b1d3" stroke="#000000" points="469.439,-252 360.561,-252 360.561,-216 469.439,-216 469.439,-252"/>
<text text-anchor="middle" x="415" y="-229.8" font-family="Times,serif" font-size="14.00" fill="#000000">AppComponent </text>
</g>
<!-- AppModule&#45;&gt;AppComponent  -->
<g id="edge8" class="edge">
<title>AppModule&#45;&gt;AppComponent </title>
<path fill="none" stroke="#000000" stroke-dasharray="1,5" d="M415,-187.1061C415,-187.1061 415,-205.991 415,-205.991"/>
<polygon fill="#000000" stroke="#000000" points="411.5001,-205.9909 415,-215.991 418.5001,-205.991 411.5001,-205.9909"/>
</g>
<!-- AppRoutingModule -->
<g id="node3" class="node">
<title>AppRoutingModule</title>
<polygon fill="#8dd3c7" stroke="#000000" points="716.2744,-122 713.2744,-126 692.2744,-126 689.2744,-122 587.7256,-122 587.7256,-86 716.2744,-86 716.2744,-122"/>
<text text-anchor="middle" x="652" y="-99.8" font-family="Times,serif" font-size="14.00" fill="#000000">AppRoutingModule</text>
</g>
<!-- AppRoutingModule&#45;&gt;AppModule -->
<g id="edge2" class="edge">
<title>AppRoutingModule&#45;&gt;AppModule</title>
<path fill="none" stroke="#000000" d="M652,-122.1061C652,-141.3391 652,-169 652,-169 652,-169 466.8253,-169 466.8253,-169"/>
<polygon fill="#000000" stroke="#000000" points="466.8253,-165.5001 456.8253,-169 466.8253,-172.5001 466.8253,-165.5001"/>
</g>
<!-- CoreModule -->
<g id="node4" class="node">
<title>CoreModule</title>
<polygon fill="#8dd3c7" stroke="#000000" points="569.2619,-122 566.2619,-126 545.2619,-126 542.2619,-122 482.7381,-122 482.7381,-86 569.2619,-86 569.2619,-122"/>
<text text-anchor="middle" x="526" y="-99.8" font-family="Times,serif" font-size="14.00" fill="#000000">CoreModule</text>
</g>
<!-- CoreModule&#45;&gt;AppModule -->
<g id="edge3" class="edge">
<title>CoreModule&#45;&gt;AppModule</title>
<path fill="none" stroke="#000000" d="M526,-122.027C526,-138.3976 526,-160 526,-160 526,-160 466.9643,-160 466.9643,-160"/>
<polygon fill="#000000" stroke="#000000" points="466.9644,-156.5001 456.9643,-160 466.9643,-163.5001 466.9644,-156.5001"/>
</g>
<!-- LayoutModule -->
<g id="node5" class="node">
<title>LayoutModule</title>
<polygon fill="#8dd3c7" stroke="#000000" points="464.7078,-122 461.7078,-126 440.7078,-126 437.7078,-122 365.2922,-122 365.2922,-86 464.7078,-86 464.7078,-122"/>
<text text-anchor="middle" x="415" y="-99.8" font-family="Times,serif" font-size="14.00" fill="#000000">LayoutModule</text>
</g>
<!-- LayoutModule&#45;&gt;AppModule -->
<g id="edge4" class="edge">
<title>LayoutModule&#45;&gt;AppModule</title>
<path fill="none" stroke="#000000" d="M415,-122.1061C415,-122.1061 415,-140.991 415,-140.991"/>
<polygon fill="#000000" stroke="#000000" points="411.5001,-140.9909 415,-150.991 418.5001,-140.991 411.5001,-140.9909"/>
</g>
<!-- PartialsModule -->
<g id="node6" class="node">
<title>PartialsModule</title>
<polygon fill="#8dd3c7" stroke="#000000" points="347.5396,-122 344.5396,-126 323.5396,-126 320.5396,-122 246.4604,-122 246.4604,-86 347.5396,-86 347.5396,-122"/>
<text text-anchor="middle" x="297" y="-99.8" font-family="Times,serif" font-size="14.00" fill="#000000">PartialsModule</text>
</g>
<!-- PartialsModule&#45;&gt;AppModule -->
<g id="edge5" class="edge">
<title>PartialsModule&#45;&gt;AppModule</title>
<path fill="none" stroke="#000000" d="M297,-122.027C297,-138.3976 297,-160 297,-160 297,-160 363.0654,-160 363.0654,-160"/>
<polygon fill="#000000" stroke="#000000" points="363.0654,-163.5001 373.0654,-160 363.0653,-156.5001 363.0654,-163.5001"/>
</g>
<!-- SharedModule -->
<g id="node7" class="node">
<title>SharedModule</title>
<polygon fill="#8dd3c7" stroke="#000000" points="228.4231,-122 225.4231,-126 204.4231,-126 201.4231,-122 129.5769,-122 129.5769,-86 228.4231,-86 228.4231,-122"/>
<text text-anchor="middle" x="179" y="-99.8" font-family="Times,serif" font-size="14.00" fill="#000000">SharedModule</text>
</g>
<!-- SharedModule&#45;&gt;AppModule -->
<g id="edge6" class="edge">
<title>SharedModule&#45;&gt;AppModule</title>
<path fill="none" stroke="#000000" d="M179,-122.1061C179,-141.3391 179,-169 179,-169 179,-169 363.0799,-169 363.0799,-169"/>
<polygon fill="#000000" stroke="#000000" points="363.0799,-172.5001 373.0799,-169 363.0798,-165.5001 363.0799,-172.5001"/>
</g>
<!-- ShellModule -->
<g id="node8" class="node">
<title>ShellModule</title>
<polygon fill="#8dd3c7" stroke="#000000" points="112.3288,-122 109.3288,-126 88.3288,-126 85.3288,-122 23.6712,-122 23.6712,-86 112.3288,-86 112.3288,-122"/>
<text text-anchor="middle" x="68" y="-99.8" font-family="Times,serif" font-size="14.00" fill="#000000">ShellModule</text>
</g>
<!-- ShellModule&#45;&gt;AppModule -->
<g id="edge7" class="edge">
<title>ShellModule&#45;&gt;AppModule</title>
<path fill="none" stroke="#000000" d="M68,-122.2921C68,-144.2057 68,-178 68,-178 68,-178 363.1437,-178 363.1437,-178"/>
<polygon fill="#000000" stroke="#000000" points="363.1437,-181.5001 373.1437,-178 363.1437,-174.5001 363.1437,-181.5001"/>
</g>
</g>
</svg>
