<?xml version="1.0" encoding="UTF-8" standalone="no"?>
<!DOCTYPE svg PUBLIC "-//W3C//DTD SVG 1.1//EN"
 "http://www.w3.org/Graphics/SVG/1.1/DTD/svg11.dtd">
<!-- Generated by graphviz version 2.40.1 (20161225.0304)
 -->
<!-- Title: dependencies Pages: 1 -->
<svg width="3588pt" height="284pt"
 viewBox="0.00 0.00 3588.00 284.00" xmlns="http://www.w3.org/2000/svg" xmlns:xlink="http://www.w3.org/1999/xlink">
<g id="graph0" class="graph" transform="scale(1 1) rotate(0) translate(4 280)">
<title>dependencies</title>
<polygon fill="#ffffff" stroke="transparent" points="-4,4 -4,-280 3584,-280 3584,4 -4,4"/>
<text text-anchor="start" x="1769.0091" y="-42.4" font-family="sans-serif" font-weight="bold" font-size="14.00" fill="#000000">Legend</text>
<polygon fill="#ffffb3" stroke="transparent" points="1556,-10 1556,-30 1576,-30 1576,-10 1556,-10"/>
<text text-anchor="start" x="1579.629" y="-15.4" font-family="sans-serif" font-size="14.00" fill="#000000"> &#160;Declarations</text>
<polygon fill="#8dd3c7" stroke="transparent" points="1669,-10 1669,-30 1689,-30 1689,-10 1669,-10"/>
<text text-anchor="start" x="1692.7251" y="-15.4" font-family="sans-serif" font-size="14.00" fill="#000000"> &#160;Module</text>
<polygon fill="#80b1d3" stroke="transparent" points="1755,-10 1755,-30 1775,-30 1775,-10 1755,-10"/>
<text text-anchor="start" x="1778.7812" y="-15.4" font-family="sans-serif" font-size="14.00" fill="#000000"> &#160;Bootstrap</text>
<polygon fill="#fdb462" stroke="transparent" points="1852,-10 1852,-30 1872,-30 1872,-10 1852,-10"/>
<text text-anchor="start" x="1875.6732" y="-15.4" font-family="sans-serif" font-size="14.00" fill="#000000"> &#160;Providers</text>
<polygon fill="#fb8072" stroke="transparent" points="1948,-10 1948,-30 1968,-30 1968,-10 1948,-10"/>
<text text-anchor="start" x="1971.7258" y="-15.4" font-family="sans-serif" font-size="14.00" fill="#000000"> &#160;Exports</text>
<g id="clust1" class="cluster">
<title>cluster_PartialsModule</title>
<polygon fill="none" stroke="#000000" stroke-dasharray="1,5" points="8,-70 8,-268 3572,-268 3572,-70 8,-70"/>
</g>
<g id="clust2" class="cluster">
<title>cluster_PartialsModule_declarations</title>
<polygon fill="none" stroke="#000000" points="857,-78 857,-130 3564,-130 3564,-78 857,-78"/>
</g>
<g id="clust20" class="cluster">
<title>cluster_PartialsModule_imports</title>
<polygon fill="none" stroke="#000000" points="16,-78 16,-130 849,-130 849,-78 16,-78"/>
</g>
<g id="clust21" class="cluster">
<title>cluster_PartialsModule_exports</title>
<polygon fill="none" stroke="#000000" points="74,-208 74,-260 3124,-260 3124,-208 74,-208"/>
</g>
<!-- AuditLogComponent -->
<g id="node1" class="node">
<title>AuditLogComponent</title>
<polygon fill="#ffffb3" stroke="#000000" points="3555.773,-122 3420.227,-122 3420.227,-86 3555.773,-86 3555.773,-122"/>
<text text-anchor="middle" x="3488" y="-99.8" font-family="Times,serif" font-size="14.00" fill="#000000">AuditLogComponent</text>
</g>
<!-- PartialsModule -->
<g id="node18" class="node">
<title>PartialsModule</title>
<polygon fill="#8dd3c7" stroke="#000000" points="1692.5396,-187 1689.5396,-191 1668.5396,-191 1665.5396,-187 1591.4604,-187 1591.4604,-151 1692.5396,-151 1692.5396,-187"/>
<text text-anchor="middle" x="1642" y="-164.8" font-family="Times,serif" font-size="14.00" fill="#000000">PartialsModule</text>
</g>
<!-- AuditLogComponent&#45;&gt;PartialsModule -->
<g id="edge1" class="edge">
<title>AuditLogComponent&#45;&gt;PartialsModule</title>
<path fill="none" stroke="#000000" d="M3488,-122.0348C3488,-141.5762 3488,-170 3488,-170 3488,-170 1702.8153,-170 1702.8153,-170"/>
<polygon fill="#000000" stroke="#000000" points="1702.8153,-166.5001 1692.8153,-170 1702.8153,-173.5001 1702.8153,-166.5001"/>
</g>
<!-- AuthorProfitComponent -->
<g id="node2" class="node">
<title>AuthorProfitComponent</title>
<polygon fill="#ffffb3" stroke="#000000" points="3402.3753,-122 3249.6247,-122 3249.6247,-86 3402.3753,-86 3402.3753,-122"/>
<text text-anchor="middle" x="3326" y="-99.8" font-family="Times,serif" font-size="14.00" fill="#000000">AuthorProfitComponent</text>
</g>
<!-- AuthorProfitComponent&#45;&gt;PartialsModule -->
<g id="edge2" class="edge">
<title>AuthorProfitComponent&#45;&gt;PartialsModule</title>
<path fill="none" stroke="#000000" d="M3326,-122.1061C3326,-141.3391 3326,-169 3326,-169 3326,-169 1702.8576,-169 1702.8576,-169"/>
<polygon fill="#000000" stroke="#000000" points="1702.8576,-165.5001 1692.8576,-169 1702.8575,-172.5001 1702.8576,-165.5001"/>
</g>
<!-- BestSellerComponent -->
<g id="node3" class="node">
<title>BestSellerComponent</title>
<polygon fill="#ffffb3" stroke="#000000" points="3231.3725,-122 3092.6275,-122 3092.6275,-86 3231.3725,-86 3231.3725,-122"/>
<text text-anchor="middle" x="3162" y="-99.8" font-family="Times,serif" font-size="14.00" fill="#000000">BestSellerComponent</text>
</g>
<!-- BestSellerComponent&#45;&gt;PartialsModule -->
<g id="edge3" class="edge">
<title>BestSellerComponent&#45;&gt;PartialsModule</title>
<path fill="none" stroke="#000000" d="M3104.1001,-122.2222C3104.1001,-140.8285 3104.1001,-167 3104.1001,-167 3104.1001,-167 1702.7534,-167 1702.7534,-167"/>
<polygon fill="#000000" stroke="#000000" points="1702.7534,-163.5001 1692.7534,-167 1702.7534,-170.5001 1702.7534,-163.5001"/>
</g>
<!-- BlogComponent -->
<g id="node4" class="node">
<title>BlogComponent</title>
<polygon fill="#ffffb3" stroke="#000000" points="3074.0605,-122 2965.9395,-122 2965.9395,-86 3074.0605,-86 3074.0605,-122"/>
<text text-anchor="middle" x="3020" y="-99.8" font-family="Times,serif" font-size="14.00" fill="#000000">BlogComponent</text>
</g>
<!-- BlogComponent&#45;&gt;PartialsModule -->
<g id="edge4" class="edge">
<title>BlogComponent&#45;&gt;PartialsModule</title>
<path fill="none" stroke="#000000" d="M2971.0419,-122.302C2971.0419,-140.2699 2971.0419,-165 2971.0419,-165 2971.0419,-165 1702.8807,-165 1702.8807,-165"/>
<polygon fill="#000000" stroke="#000000" points="1702.8807,-161.5001 1692.8807,-165 1702.8806,-168.5001 1702.8807,-161.5001"/>
</g>
<!-- DataTableComponent -->
<g id="node5" class="node">
<title>DataTableComponent</title>
<polygon fill="#ffffb3" stroke="#000000" points="2947.6317,-122 2808.3683,-122 2808.3683,-86 2947.6317,-86 2947.6317,-122"/>
<text text-anchor="middle" x="2878" y="-99.8" font-family="Times,serif" font-size="14.00" fill="#000000">DataTableComponent</text>
</g>
<!-- DataTableComponent&#45;&gt;PartialsModule -->
<g id="edge5" class="edge">
<title>DataTableComponent&#45;&gt;PartialsModule</title>
<path fill="none" stroke="#000000" d="M2901.2719,-122.0225C2901.2719,-139.3734 2901.2719,-163 2901.2719,-163 2901.2719,-163 1702.9246,-163 1702.9246,-163"/>
<polygon fill="#000000" stroke="#000000" points="1702.9246,-159.5001 1692.9246,-163 1702.9246,-166.5001 1702.9246,-159.5001"/>
</g>
<!-- FinanceStatsComponent -->
<g id="node6" class="node">
<title>FinanceStatsComponent</title>
<polygon fill="#ffffb3" stroke="#000000" points="2790.3725,-122 2637.6275,-122 2637.6275,-86 2790.3725,-86 2790.3725,-122"/>
<text text-anchor="middle" x="2714" y="-99.8" font-family="Times,serif" font-size="14.00" fill="#000000">FinanceStatsComponent</text>
</g>
<!-- FinanceStatsComponent&#45;&gt;PartialsModule -->
<g id="edge6" class="edge">
<title>FinanceStatsComponent&#45;&gt;PartialsModule</title>
<path fill="none" stroke="#000000" d="M2689.2713,-122.0336C2689.2713,-139.0597 2689.2713,-162 2689.2713,-162 2689.2713,-162 1702.866,-162 1702.866,-162"/>
<polygon fill="#000000" stroke="#000000" points="1702.866,-158.5001 1692.866,-162 1702.866,-165.5001 1702.866,-158.5001"/>
</g>
<!-- ListSettingsComponent -->
<g id="node7" class="node">
<title>ListSettingsComponent</title>
<polygon fill="#ffffb3" stroke="#000000" points="2619.2246,-122 2470.7754,-122 2470.7754,-86 2619.2246,-86 2619.2246,-122"/>
<text text-anchor="middle" x="2545" y="-99.8" font-family="Times,serif" font-size="14.00" fill="#000000">ListSettingsComponent</text>
</g>
<!-- ListSettingsComponent&#45;&gt;PartialsModule -->
<g id="edge7" class="edge">
<title>ListSettingsComponent&#45;&gt;PartialsModule</title>
<path fill="none" stroke="#000000" d="M2482.2267,-122.027C2482.2267,-138.3976 2482.2267,-160 2482.2267,-160 2482.2267,-160 1702.6678,-160 1702.6678,-160"/>
<polygon fill="#000000" stroke="#000000" points="1702.6678,-156.5001 1692.6678,-160 1702.6677,-163.5001 1702.6678,-156.5001"/>
</g>
<!-- NoticeComponent -->
<g id="node8" class="node">
<title>NoticeComponent</title>
<polygon fill="#ffffb3" stroke="#000000" points="2453.1499,-122 2334.8501,-122 2334.8501,-86 2453.1499,-86 2453.1499,-122"/>
<text text-anchor="middle" x="2394" y="-99.8" font-family="Times,serif" font-size="14.00" fill="#000000">NoticeComponent</text>
</g>
<!-- NoticeComponent&#45;&gt;PartialsModule -->
<g id="edge8" class="edge">
<title>NoticeComponent&#45;&gt;PartialsModule</title>
<path fill="none" stroke="#000000" d="M2342.5549,-122.2819C2342.5549,-137.9478 2342.5549,-158 2342.5549,-158 2342.5549,-158 1702.664,-158 1702.664,-158"/>
<polygon fill="#000000" stroke="#000000" points="1702.664,-154.5001 1692.664,-158 1702.664,-161.5001 1702.664,-154.5001"/>
</g>
<!-- PackagesComponent -->
<g id="node9" class="node">
<title>PackagesComponent</title>
<polygon fill="#ffffb3" stroke="#000000" points="2316.9187,-122 2183.0813,-122 2183.0813,-86 2316.9187,-86 2316.9187,-122"/>
<text text-anchor="middle" x="2250" y="-99.8" font-family="Times,serif" font-size="14.00" fill="#000000">PackagesComponent</text>
</g>
<!-- PackagesComponent&#45;&gt;PartialsModule -->
<g id="edge9" class="edge">
<title>PackagesComponent&#45;&gt;PartialsModule</title>
<path fill="none" stroke="#000000" d="M2250,-122.2396C2250,-137.5706 2250,-157 2250,-157 2250,-157 1702.792,-157 1702.792,-157"/>
<polygon fill="#000000" stroke="#000000" points="1702.792,-153.5001 1692.792,-157 1702.7919,-160.5001 1702.792,-153.5001"/>
</g>
<!-- QuickSidebarComponent -->
<g id="node10" class="node">
<title>QuickSidebarComponent</title>
<polygon fill="#ffffb3" stroke="#000000" points="2165.3075,-122 2006.6925,-122 2006.6925,-86 2165.3075,-86 2165.3075,-122"/>
<text text-anchor="middle" x="2086" y="-99.8" font-family="Times,serif" font-size="14.00" fill="#000000">QuickSidebarComponent</text>
</g>
<!-- QuickSidebarComponent&#45;&gt;PartialsModule -->
<g id="edge10" class="edge">
<title>QuickSidebarComponent&#45;&gt;PartialsModule</title>
<path fill="none" stroke="#000000" d="M2057.185,-122.1243C2057.185,-136.7832 2057.185,-155 2057.185,-155 2057.185,-155 1702.9098,-155 1702.9098,-155"/>
<polygon fill="#000000" stroke="#000000" points="1702.9099,-151.5001 1692.9098,-155 1702.9098,-158.5001 1702.9099,-151.5001"/>
</g>
<!-- RecentActivitiesComponent -->
<g id="node11" class="node">
<title>RecentActivitiesComponent</title>
<polygon fill="#ffffb3" stroke="#000000" points="1989.1372,-122 1814.8628,-122 1814.8628,-86 1989.1372,-86 1989.1372,-122"/>
<text text-anchor="middle" x="1902" y="-99.8" font-family="Times,serif" font-size="14.00" fill="#000000">RecentActivitiesComponent</text>
</g>
<!-- RecentActivitiesComponent&#45;&gt;PartialsModule -->
<g id="edge11" class="edge">
<title>RecentActivitiesComponent&#45;&gt;PartialsModule</title>
<path fill="none" stroke="#000000" d="M1831.0703,-122.2458C1831.0703,-136.1772 1831.0703,-153 1831.0703,-153 1831.0703,-153 1702.6674,-153 1702.6674,-153"/>
<polygon fill="#000000" stroke="#000000" points="1702.6674,-149.5001 1692.6674,-153 1702.6673,-156.5001 1702.6674,-149.5001"/>
</g>
<!-- RecentNotificationsComponent -->
<g id="node12" class="node">
<title>RecentNotificationsComponent</title>
<polygon fill="#ffffb3" stroke="#000000" points="1796.7976,-122 1603.2024,-122 1603.2024,-86 1796.7976,-86 1796.7976,-122"/>
<text text-anchor="middle" x="1700" y="-99.8" font-family="Times,serif" font-size="14.00" fill="#000000">RecentNotificationsComponent</text>
</g>
<!-- RecentNotificationsComponent&#45;&gt;PartialsModule -->
<g id="edge12" class="edge">
<title>RecentNotificationsComponent&#45;&gt;PartialsModule</title>
<path fill="none" stroke="#000000" d="M1648.0603,-122.1061C1648.0603,-122.1061 1648.0603,-140.991 1648.0603,-140.991"/>
<polygon fill="#000000" stroke="#000000" points="1644.5604,-140.9909 1648.0603,-150.991 1651.5604,-140.991 1644.5604,-140.9909"/>
</g>
<!-- ScrollTopComponent -->
<g id="node13" class="node">
<title>ScrollTopComponent</title>
<polygon fill="#ffffb3" stroke="#000000" points="1585.8244,-122 1448.1756,-122 1448.1756,-86 1585.8244,-86 1585.8244,-122"/>
<text text-anchor="middle" x="1517" y="-99.8" font-family="Times,serif" font-size="14.00" fill="#000000">ScrollTopComponent</text>
</g>
<!-- ScrollTopComponent&#45;&gt;PartialsModule -->
<g id="edge13" class="edge">
<title>ScrollTopComponent&#45;&gt;PartialsModule</title>
<path fill="none" stroke="#000000" d="M1579.7828,-122.2458C1579.7828,-136.1772 1579.7828,-153 1579.7828,-153 1579.7828,-153 1581.1944,-153 1581.1944,-153"/>
<polygon fill="#000000" stroke="#000000" points="1581.1944,-156.5001 1591.1944,-153 1581.1944,-149.5001 1581.1944,-156.5001"/>
</g>
<!-- StatComponent -->
<g id="node14" class="node">
<title>StatComponent</title>
<polygon fill="#ffffb3" stroke="#000000" points="1430.6109,-122 1327.3891,-122 1327.3891,-86 1430.6109,-86 1430.6109,-122"/>
<text text-anchor="middle" x="1379" y="-99.8" font-family="Times,serif" font-size="14.00" fill="#000000">StatComponent</text>
</g>
<!-- StatComponent&#45;&gt;PartialsModule -->
<g id="edge14" class="edge">
<title>StatComponent&#45;&gt;PartialsModule</title>
<path fill="none" stroke="#000000" d="M1421.3259,-122.1243C1421.3259,-136.7832 1421.3259,-155 1421.3259,-155 1421.3259,-155 1581.3729,-155 1581.3729,-155"/>
<polygon fill="#000000" stroke="#000000" points="1581.3729,-158.5001 1591.3729,-155 1581.3729,-151.5001 1581.3729,-158.5001"/>
</g>
<!-- SupportTicketsComponent -->
<g id="node15" class="node">
<title>SupportTicketsComponent</title>
<polygon fill="#ffffb3" stroke="#000000" points="1309.3738,-122 1142.6262,-122 1142.6262,-86 1309.3738,-86 1309.3738,-122"/>
<text text-anchor="middle" x="1226" y="-99.8" font-family="Times,serif" font-size="14.00" fill="#000000">SupportTicketsComponent</text>
</g>
<!-- SupportTicketsComponent&#45;&gt;PartialsModule -->
<g id="edge15" class="edge">
<title>SupportTicketsComponent&#45;&gt;PartialsModule</title>
<path fill="none" stroke="#000000" d="M1262.6843,-122.1871C1262.6843,-137.1824 1262.6843,-156 1262.6843,-156 1262.6843,-156 1581.2374,-156 1581.2374,-156"/>
<polygon fill="#000000" stroke="#000000" points="1581.2374,-159.5001 1591.2374,-156 1581.2373,-152.5001 1581.2374,-159.5001"/>
</g>
<!-- TasksComponent -->
<g id="node16" class="node">
<title>TasksComponent</title>
<polygon fill="#ffffb3" stroke="#000000" points="1124.9888,-122 1011.0112,-122 1011.0112,-86 1124.9888,-86 1124.9888,-122"/>
<text text-anchor="middle" x="1068" y="-99.8" font-family="Times,serif" font-size="14.00" fill="#000000">TasksComponent</text>
</g>
<!-- TasksComponent&#45;&gt;PartialsModule -->
<g id="edge16" class="edge">
<title>TasksComponent&#45;&gt;PartialsModule</title>
<path fill="none" stroke="#000000" d="M1068,-122.2819C1068,-137.9478 1068,-158 1068,-158 1068,-158 1581.3131,-158 1581.3131,-158"/>
<polygon fill="#000000" stroke="#000000" points="1581.3132,-161.5001 1591.3131,-158 1581.3131,-154.5001 1581.3132,-161.5001"/>
</g>
<!-- TooltipsComponent -->
<g id="node17" class="node">
<title>TooltipsComponent</title>
<polygon fill="#ffffb3" stroke="#000000" points="993.0014,-122 864.9986,-122 864.9986,-86 993.0014,-86 993.0014,-122"/>
<text text-anchor="middle" x="929" y="-99.8" font-family="Times,serif" font-size="14.00" fill="#000000">TooltipsComponent</text>
</g>
<!-- TooltipsComponent&#45;&gt;PartialsModule -->
<g id="edge17" class="edge">
<title>TooltipsComponent&#45;&gt;PartialsModule</title>
<path fill="none" stroke="#000000" d="M988.2064,-122.027C988.2064,-138.3976 988.2064,-160 988.2064,-160 988.2064,-160 1581.2419,-160 1581.2419,-160"/>
<polygon fill="#000000" stroke="#000000" points="1581.242,-163.5001 1591.2419,-160 1581.2419,-156.5001 1581.242,-163.5001"/>
</g>
<!-- AuditLogComponent  -->
<g id="node25" class="node">
<title>AuditLogComponent </title>
<polygon fill="#fb8072" stroke="#000000" points="3115.7731,-252 2976.2269,-252 2976.2269,-216 3115.7731,-216 3115.7731,-252"/>
<text text-anchor="middle" x="3046" y="-229.8" font-family="Times,serif" font-size="14.00" fill="#000000">AuditLogComponent </text>
</g>
<!-- PartialsModule&#45;&gt;AuditLogComponent  -->
<g id="edge25" class="edge">
<title>PartialsModule&#45;&gt;AuditLogComponent </title>
<path fill="none" stroke="#000000" stroke-dasharray="5,2" d="M1692.8737,-172C1942.4433,-172 3025.3217,-172 3025.3217,-172 3025.3217,-172 3025.3217,-205.7333 3025.3217,-205.7333"/>
<polygon fill="#000000" stroke="#000000" points="3021.8218,-205.7333 3025.3217,-215.7333 3028.8218,-205.7333 3021.8218,-205.7333"/>
</g>
<!-- AuthorProfitComponent  -->
<g id="node26" class="node">
<title>AuthorProfitComponent </title>
<polygon fill="#fb8072" stroke="#000000" points="2958.3757,-252 2801.6243,-252 2801.6243,-216 2958.3757,-216 2958.3757,-252"/>
<text text-anchor="middle" x="2880" y="-229.8" font-family="Times,serif" font-size="14.00" fill="#000000">AuthorProfitComponent </text>
</g>
<!-- PartialsModule&#45;&gt;AuthorProfitComponent  -->
<g id="edge26" class="edge">
<title>PartialsModule&#45;&gt;AuthorProfitComponent </title>
<path fill="none" stroke="#000000" stroke-dasharray="5,2" d="M1692.5654,-174C1922.0835,-174 2854.7281,-174 2854.7281,-174 2854.7281,-174 2854.7281,-205.998 2854.7281,-205.998"/>
<polygon fill="#000000" stroke="#000000" points="2851.2282,-205.998 2854.7281,-215.998 2858.2282,-205.9981 2851.2282,-205.998"/>
</g>
<!-- BestSellerComponent  -->
<g id="node27" class="node">
<title>BestSellerComponent </title>
<polygon fill="#fb8072" stroke="#000000" points="2784.3729,-252 2641.6271,-252 2641.6271,-216 2784.3729,-216 2784.3729,-252"/>
<text text-anchor="middle" x="2713" y="-229.8" font-family="Times,serif" font-size="14.00" fill="#000000">BestSellerComponent </text>
</g>
<!-- PartialsModule&#45;&gt;BestSellerComponent  -->
<g id="edge27" class="edge">
<title>PartialsModule&#45;&gt;BestSellerComponent </title>
<path fill="none" stroke="#000000" stroke-dasharray="5,2" d="M1692.6055,-175C1907.9053,-175 2736.7287,-175 2736.7287,-175 2736.7287,-175 2736.7287,-205.9775 2736.7287,-205.9775"/>
<polygon fill="#000000" stroke="#000000" points="2733.2288,-205.9774 2736.7287,-215.9775 2740.2288,-205.9775 2733.2288,-205.9774"/>
</g>
<!-- BlogComponent  -->
<g id="node28" class="node">
<title>BlogComponent </title>
<polygon fill="#fb8072" stroke="#000000" points="2624.0596,-252 2511.9404,-252 2511.9404,-216 2624.0596,-216 2624.0596,-252"/>
<text text-anchor="middle" x="2568" y="-229.8" font-family="Times,serif" font-size="14.00" fill="#000000">BlogComponent </text>
</g>
<!-- PartialsModule&#45;&gt;BlogComponent  -->
<g id="edge28" class="edge">
<title>PartialsModule&#45;&gt;BlogComponent </title>
<path fill="none" stroke="#000000" stroke-dasharray="5,2" d="M1692.6388,-177C1885.8058,-177 2565.5412,-177 2565.5412,-177 2565.5412,-177 2565.5412,-205.9648 2565.5412,-205.9648"/>
<polygon fill="#000000" stroke="#000000" points="2562.0413,-205.9648 2565.5412,-215.9648 2569.0413,-205.9649 2562.0413,-205.9648"/>
</g>
<!-- DataTableComponent  -->
<g id="node29" class="node">
<title>DataTableComponent </title>
<polygon fill="#fb8072" stroke="#000000" points="2493.6313,-252 2350.3687,-252 2350.3687,-216 2493.6313,-216 2493.6313,-252"/>
<text text-anchor="middle" x="2422" y="-229.8" font-family="Times,serif" font-size="14.00" fill="#000000">DataTableComponent </text>
</g>
<!-- PartialsModule&#45;&gt;DataTableComponent  -->
<g id="edge29" class="edge">
<title>PartialsModule&#45;&gt;DataTableComponent </title>
<path fill="none" stroke="#000000" stroke-dasharray="5,2" d="M1692.7417,-179C1862.7873,-179 2401.8796,-179 2401.8796,-179 2401.8796,-179 2401.8796,-205.9909 2401.8796,-205.9909"/>
<polygon fill="#000000" stroke="#000000" points="2398.3796,-205.9909 2401.8796,-215.9909 2405.3796,-205.991 2398.3796,-205.9909"/>
</g>
<!-- FinanceStatsComponent  -->
<g id="node30" class="node">
<title>FinanceStatsComponent </title>
<polygon fill="#fb8072" stroke="#000000" points="2332.3728,-252 2175.6272,-252 2175.6272,-216 2332.3728,-216 2332.3728,-252"/>
<text text-anchor="middle" x="2254" y="-229.8" font-family="Times,serif" font-size="14.00" fill="#000000">FinanceStatsComponent </text>
</g>
<!-- PartialsModule&#45;&gt;FinanceStatsComponent  -->
<g id="edge30" class="edge">
<title>PartialsModule&#45;&gt;FinanceStatsComponent </title>
<path fill="none" stroke="#000000" stroke-dasharray="5,2" d="M1692.5716,-181C1826.3879,-181 2179.5524,-181 2179.5524,-181 2179.5524,-181 2179.5524,-205.7604 2179.5524,-205.7604"/>
<polygon fill="#000000" stroke="#000000" points="2176.0525,-205.7604 2179.5524,-215.7604 2183.0525,-205.7604 2176.0525,-205.7604"/>
</g>
<!-- ListSettingsComponent  -->
<g id="node31" class="node">
<title>ListSettingsComponent </title>
<polygon fill="#fb8072" stroke="#000000" points="2157.7246,-252 2006.2754,-252 2006.2754,-216 2157.7246,-216 2157.7246,-252"/>
<text text-anchor="middle" x="2082" y="-229.8" font-family="Times,serif" font-size="14.00" fill="#000000">ListSettingsComponent </text>
</g>
<!-- PartialsModule&#45;&gt;ListSettingsComponent  -->
<g id="edge31" class="edge">
<title>PartialsModule&#45;&gt;ListSettingsComponent </title>
<path fill="none" stroke="#000000" stroke-dasharray="5,2" d="M1692.7054,-182C1813.3589,-182 2107.5236,-182 2107.5236,-182 2107.5236,-182 2107.5236,-205.8129 2107.5236,-205.8129"/>
<polygon fill="#000000" stroke="#000000" points="2104.0237,-205.8129 2107.5236,-215.8129 2111.0237,-205.813 2104.0237,-205.8129"/>
</g>
<!-- NoticeComponent  -->
<g id="node32" class="node">
<title>NoticeComponent </title>
<polygon fill="#fb8072" stroke="#000000" points="1988.1495,-252 1865.8505,-252 1865.8505,-216 1988.1495,-216 1988.1495,-252"/>
<text text-anchor="middle" x="1927" y="-229.8" font-family="Times,serif" font-size="14.00" fill="#000000">NoticeComponent </text>
</g>
<!-- PartialsModule&#45;&gt;NoticeComponent  -->
<g id="edge32" class="edge">
<title>PartialsModule&#45;&gt;NoticeComponent </title>
<path fill="none" stroke="#000000" stroke-dasharray="5,2" d="M1692.6239,-184C1774.5215,-184 1927,-184 1927,-184 1927,-184 1927,-205.9489 1927,-205.9489"/>
<polygon fill="#000000" stroke="#000000" points="1923.5001,-205.9488 1927,-215.9489 1930.5001,-205.9489 1923.5001,-205.9488"/>
</g>
<!-- PackagesComponent  -->
<g id="node33" class="node">
<title>PackagesComponent </title>
<polygon fill="#fb8072" stroke="#000000" points="1847.418,-252 1710.582,-252 1710.582,-216 1847.418,-216 1847.418,-252"/>
<text text-anchor="middle" x="1779" y="-229.8" font-family="Times,serif" font-size="14.00" fill="#000000">PackagesComponent </text>
</g>
<!-- PartialsModule&#45;&gt;PackagesComponent  -->
<g id="edge33" class="edge">
<title>PartialsModule&#45;&gt;PackagesComponent </title>
<path fill="none" stroke="#000000" stroke-dasharray="5,2" d="M1692.5732,-186C1722.0998,-186 1753.5949,-186 1753.5949,-186 1753.5949,-186 1753.5949,-205.8533 1753.5949,-205.8533"/>
<polygon fill="#000000" stroke="#000000" points="1750.0949,-205.8532 1753.5949,-215.8533 1757.0949,-205.8533 1750.0949,-205.8532"/>
</g>
<!-- PortletModule  -->
<g id="node34" class="node">
<title>PortletModule </title>
<polygon fill="#fb8072" stroke="#000000" points="1692.3801,-252 1591.6199,-252 1591.6199,-216 1692.3801,-216 1692.3801,-252"/>
<text text-anchor="middle" x="1642" y="-229.8" font-family="Times,serif" font-size="14.00" fill="#000000">PortletModule </text>
</g>
<!-- PartialsModule&#45;&gt;PortletModule  -->
<g id="edge34" class="edge">
<title>PartialsModule&#45;&gt;PortletModule </title>
<path fill="none" stroke="#000000" stroke-dasharray="5,2" d="M1642,-187.1061C1642,-187.1061 1642,-205.991 1642,-205.991"/>
<polygon fill="#000000" stroke="#000000" points="1638.5001,-205.9909 1642,-215.991 1645.5001,-205.991 1638.5001,-205.9909"/>
</g>
<!-- QuickSidebarComponent  -->
<g id="node35" class="node">
<title>QuickSidebarComponent </title>
<polygon fill="#fb8072" stroke="#000000" points="1573.8073,-252 1412.1927,-252 1412.1927,-216 1573.8073,-216 1573.8073,-252"/>
<text text-anchor="middle" x="1493" y="-229.8" font-family="Times,serif" font-size="14.00" fill="#000000">QuickSidebarComponent </text>
</g>
<!-- PartialsModule&#45;&gt;QuickSidebarComponent  -->
<g id="edge35" class="edge">
<title>PartialsModule&#45;&gt;QuickSidebarComponent </title>
<path fill="none" stroke="#000000" stroke-dasharray="5,2" d="M1591.3987,-186C1554.5693,-186 1511.1208,-186 1511.1208,-186 1511.1208,-186 1511.1208,-205.8533 1511.1208,-205.8533"/>
<polygon fill="#000000" stroke="#000000" points="1507.6209,-205.8532 1511.1208,-215.8533 1514.6209,-205.8533 1507.6209,-205.8532"/>
</g>
<!-- RecentActivitiesComponent  -->
<g id="node36" class="node">
<title>RecentActivitiesComponent </title>
<polygon fill="#fb8072" stroke="#000000" points="1394.1369,-252 1215.8631,-252 1215.8631,-216 1394.1369,-216 1394.1369,-252"/>
<text text-anchor="middle" x="1305" y="-229.8" font-family="Times,serif" font-size="14.00" fill="#000000">RecentActivitiesComponent </text>
</g>
<!-- PartialsModule&#45;&gt;RecentActivitiesComponent  -->
<g id="edge36" class="edge">
<title>PartialsModule&#45;&gt;RecentActivitiesComponent </title>
<path fill="none" stroke="#000000" stroke-dasharray="5,2" d="M1591.3945,-184C1510.4227,-184 1360.7565,-184 1360.7565,-184 1360.7565,-184 1360.7565,-205.9489 1360.7565,-205.9489"/>
<polygon fill="#000000" stroke="#000000" points="1357.2566,-205.9488 1360.7565,-215.9489 1364.2566,-205.9489 1357.2566,-205.9488"/>
</g>
<!-- RecentNotificationsComponent  -->
<g id="node37" class="node">
<title>RecentNotificationsComponent </title>
<polygon fill="#fb8072" stroke="#000000" points="1198.2975,-252 1001.7025,-252 1001.7025,-216 1198.2975,-216 1198.2975,-252"/>
<text text-anchor="middle" x="1100" y="-229.8" font-family="Times,serif" font-size="14.00" fill="#000000">RecentNotificationsComponent </text>
</g>
<!-- PartialsModule&#45;&gt;RecentNotificationsComponent  -->
<g id="edge37" class="edge">
<title>PartialsModule&#45;&gt;RecentNotificationsComponent </title>
<path fill="none" stroke="#000000" stroke-dasharray="5,2" d="M1591.0912,-183C1469.1667,-183 1170.4809,-183 1170.4809,-183 1170.4809,-183 1170.4809,-205.8757 1170.4809,-205.8757"/>
<polygon fill="#000000" stroke="#000000" points="1166.981,-205.8757 1170.4809,-215.8757 1173.981,-205.8757 1166.981,-205.8757"/>
</g>
<!-- ScrollTopComponent  -->
<g id="node38" class="node">
<title>ScrollTopComponent </title>
<polygon fill="#fb8072" stroke="#000000" points="983.3241,-252 842.6759,-252 842.6759,-216 983.3241,-216 983.3241,-252"/>
<text text-anchor="middle" x="913" y="-229.8" font-family="Times,serif" font-size="14.00" fill="#000000">ScrollTopComponent </text>
</g>
<!-- PartialsModule&#45;&gt;ScrollTopComponent  -->
<g id="edge38" class="edge">
<title>PartialsModule&#45;&gt;ScrollTopComponent </title>
<path fill="none" stroke="#000000" stroke-dasharray="5,2" d="M1591.2401,-181C1427.5537,-181 924.2057,-181 924.2057,-181 924.2057,-181 924.2057,-205.7604 924.2057,-205.7604"/>
<polygon fill="#000000" stroke="#000000" points="920.7057,-205.7604 924.2057,-215.7604 927.7057,-205.7604 920.7057,-205.7604"/>
</g>
<!-- SpinnerButtonModule  -->
<g id="node39" class="node">
<title>SpinnerButtonModule </title>
<polygon fill="#fb8072" stroke="#000000" points="824.2163,-252 679.7837,-252 679.7837,-216 824.2163,-216 824.2163,-252"/>
<text text-anchor="middle" x="752" y="-229.8" font-family="Times,serif" font-size="14.00" fill="#000000">SpinnerButtonModule </text>
</g>
<!-- PartialsModule&#45;&gt;SpinnerButtonModule  -->
<g id="edge39" class="edge">
<title>PartialsModule&#45;&gt;SpinnerButtonModule </title>
<path fill="none" stroke="#000000" stroke-dasharray="5,2" d="M1591.1574,-179C1404.3493,-179 766.7109,-179 766.7109,-179 766.7109,-179 766.7109,-205.9909 766.7109,-205.9909"/>
<polygon fill="#000000" stroke="#000000" points="763.211,-205.9909 766.7109,-215.9909 770.211,-205.991 763.211,-205.9909"/>
</g>
<!-- StatComponent  -->
<g id="node40" class="node">
<title>StatComponent </title>
<polygon fill="#fb8072" stroke="#000000" points="661.1115,-252 554.8885,-252 554.8885,-216 661.1115,-216 661.1115,-252"/>
<text text-anchor="middle" x="608" y="-229.8" font-family="Times,serif" font-size="14.00" fill="#000000">StatComponent </text>
</g>
<!-- PartialsModule&#45;&gt;StatComponent  -->
<g id="edge40" class="edge">
<title>PartialsModule&#45;&gt;StatComponent </title>
<path fill="none" stroke="#000000" stroke-dasharray="5,2" d="M1591.1257,-178C1384.1215,-178 616.1057,-178 616.1057,-178 616.1057,-178 616.1057,-205.973 616.1057,-205.973"/>
<polygon fill="#000000" stroke="#000000" points="612.6058,-205.973 616.1057,-215.973 619.6058,-205.973 612.6058,-205.973"/>
</g>
<!-- SupportTicketsComponent  -->
<g id="node41" class="node">
<title>SupportTicketsComponent </title>
<polygon fill="#fb8072" stroke="#000000" points="537.3742,-252 366.6258,-252 366.6258,-216 537.3742,-216 537.3742,-252"/>
<text text-anchor="middle" x="452" y="-229.8" font-family="Times,serif" font-size="14.00" fill="#000000">SupportTicketsComponent </text>
</g>
<!-- PartialsModule&#45;&gt;SupportTicketsComponent  -->
<g id="edge41" class="edge">
<title>PartialsModule&#45;&gt;SupportTicketsComponent </title>
<path fill="none" stroke="#000000" stroke-dasharray="5,2" d="M1591.2957,-176C1369.5825,-176 496.3736,-176 496.3736,-176 496.3736,-176 496.3736,-205.9664 496.3736,-205.9664"/>
<polygon fill="#000000" stroke="#000000" points="492.8735,-205.9664 496.3736,-215.9664 499.8735,-205.9663 492.8735,-205.9664"/>
</g>
<!-- TasksComponent  -->
<g id="node42" class="node">
<title>TasksComponent </title>
<polygon fill="#fb8072" stroke="#000000" points="348.9898,-252 231.0102,-252 231.0102,-216 348.9898,-216 348.9898,-252"/>
<text text-anchor="middle" x="290" y="-229.8" font-family="Times,serif" font-size="14.00" fill="#000000">TasksComponent </text>
</g>
<!-- PartialsModule&#45;&gt;TasksComponent  -->
<g id="edge42" class="edge">
<title>PartialsModule&#45;&gt;TasksComponent </title>
<path fill="none" stroke="#000000" stroke-dasharray="5,2" d="M1591.1077,-174C1351.0831,-174 343.7667,-174 343.7667,-174 343.7667,-174 343.7667,-205.998 343.7667,-205.998"/>
<polygon fill="#000000" stroke="#000000" points="340.2667,-205.998 343.7667,-215.998 347.2667,-205.9981 340.2667,-205.998"/>
</g>
<!-- TooltipsComponent  -->
<g id="node43" class="node">
<title>TooltipsComponent </title>
<polygon fill="#fb8072" stroke="#000000" points="213.5023,-252 82.4977,-252 82.4977,-216 213.5023,-216 213.5023,-252"/>
<text text-anchor="middle" x="148" y="-229.8" font-family="Times,serif" font-size="14.00" fill="#000000">TooltipsComponent </text>
</g>
<!-- PartialsModule&#45;&gt;TooltipsComponent  -->
<g id="edge43" class="edge">
<title>PartialsModule&#45;&gt;TooltipsComponent </title>
<path fill="none" stroke="#000000" stroke-dasharray="5,2" d="M1591.404,-173C1335.5734,-173 196.5714,-173 196.5713,-173 196.5713,-173 196.5713,-205.698 196.5713,-205.698"/>
<polygon fill="#000000" stroke="#000000" points="193.0713,-205.698 196.5714,-215.698 200.0713,-205.698 193.0713,-205.698"/>
</g>
<!-- ListTimelineModule -->
<g id="node19" class="node">
<title>ListTimelineModule</title>
<polygon fill="#8dd3c7" stroke="#000000" points="840.8725,-122 837.8725,-126 816.8725,-126 813.8725,-122 709.1275,-122 709.1275,-86 840.8725,-86 840.8725,-122"/>
<text text-anchor="middle" x="775" y="-99.8" font-family="Times,serif" font-size="14.00" fill="#000000">ListTimelineModule</text>
</g>
<!-- ListTimelineModule&#45;&gt;PartialsModule -->
<g id="edge18" class="edge">
<title>ListTimelineModule&#45;&gt;PartialsModule</title>
<path fill="none" stroke="#000000" d="M832.6471,-122.0352C832.6471,-138.7344 832.6471,-161 832.6471,-161 832.6471,-161 1581.3714,-161 1581.3714,-161"/>
<polygon fill="#000000" stroke="#000000" points="1581.3714,-164.5001 1591.3714,-161 1581.3713,-157.5001 1581.3714,-164.5001"/>
</g>
<!-- MessengerModule -->
<g id="node20" class="node">
<title>MessengerModule</title>
<polygon fill="#8dd3c7" stroke="#000000" points="691.1881,-122 688.1881,-126 667.1881,-126 664.1881,-122 570.8119,-122 570.8119,-86 691.1881,-86 691.1881,-122"/>
<text text-anchor="middle" x="631" y="-99.8" font-family="Times,serif" font-size="14.00" fill="#000000">MessengerModule</text>
</g>
<!-- MessengerModule&#45;&gt;PartialsModule -->
<g id="edge19" class="edge">
<title>MessengerModule&#45;&gt;PartialsModule</title>
<path fill="none" stroke="#000000" d="M685.368,-122.0225C685.368,-139.3734 685.368,-163 685.368,-163 685.368,-163 1581.2427,-163 1581.2427,-163"/>
<polygon fill="#000000" stroke="#000000" points="1581.2428,-166.5001 1591.2427,-163 1581.2427,-159.5001 1581.2428,-166.5001"/>
</g>
<!-- PortletModule -->
<g id="node21" class="node">
<title>PortletModule</title>
<polygon fill="#8dd3c7" stroke="#000000" points="552.3795,-122 549.3795,-126 528.3795,-126 525.3795,-122 455.6205,-122 455.6205,-86 552.3795,-86 552.3795,-122"/>
<text text-anchor="middle" x="504" y="-99.8" font-family="Times,serif" font-size="14.00" fill="#000000">PortletModule</text>
</g>
<!-- PortletModule&#45;&gt;PartialsModule -->
<g id="edge20" class="edge">
<title>PortletModule&#45;&gt;PartialsModule</title>
<path fill="none" stroke="#000000" d="M544.8133,-122.302C544.8133,-140.2699 544.8133,-165 544.8133,-165 544.8133,-165 1581.2809,-165 1581.2809,-165"/>
<polygon fill="#000000" stroke="#000000" points="1581.2809,-168.5001 1591.2809,-165 1581.2809,-161.5001 1581.2809,-168.5001"/>
</g>
<!-- SharedModule -->
<g id="node22" class="node">
<title>SharedModule</title>
<polygon fill="#8dd3c7" stroke="#000000" points="437.4231,-122 434.4231,-126 413.4231,-126 410.4231,-122 338.5769,-122 338.5769,-86 437.4231,-86 437.4231,-122"/>
<text text-anchor="middle" x="388" y="-99.8" font-family="Times,serif" font-size="14.00" fill="#000000">SharedModule</text>
</g>
<!-- SharedModule&#45;&gt;PartialsModule -->
<g id="edge21" class="edge">
<title>SharedModule&#45;&gt;PartialsModule</title>
<path fill="none" stroke="#000000" d="M390.2791,-122.1686C390.2791,-141.0898 390.2791,-168 390.2791,-168 390.2791,-168 1581.3808,-168 1581.3808,-168"/>
<polygon fill="#000000" stroke="#000000" points="1581.3808,-171.5001 1591.3808,-168 1581.3807,-164.5001 1581.3808,-171.5001"/>
</g>
<!-- SharedModule&#45;&gt;PartialsModule -->
<g id="edge22" class="edge">
<title>SharedModule&#45;&gt;PartialsModule</title>
<path fill="none" stroke="#000000" d="M413.7451,-122.2667C413.7451,-140.5552 413.7451,-166 413.7451,-166 413.7451,-166 1581.1748,-166 1581.1748,-166"/>
<polygon fill="#000000" stroke="#000000" points="1581.1748,-169.5001 1591.1748,-166 1581.1748,-162.5001 1581.1748,-169.5001"/>
</g>
<!-- SpinnerButtonModule -->
<g id="node23" class="node">
<title>SpinnerButtonModule</title>
<polygon fill="#8dd3c7" stroke="#000000" points="320.7162,-122 317.7162,-126 296.7162,-126 293.7162,-122 179.2838,-122 179.2838,-86 320.7162,-86 320.7162,-122"/>
<text text-anchor="middle" x="250" y="-99.8" font-family="Times,serif" font-size="14.00" fill="#000000">SpinnerButtonModule</text>
</g>
<!-- SpinnerButtonModule&#45;&gt;PartialsModule -->
<g id="edge23" class="edge">
<title>SpinnerButtonModule&#45;&gt;PartialsModule</title>
<path fill="none" stroke="#000000" d="M275.9318,-122.1061C275.9318,-141.3391 275.9318,-169 275.9318,-169 275.9318,-169 1581.352,-169 1581.352,-169"/>
<polygon fill="#000000" stroke="#000000" points="1581.352,-172.5001 1591.352,-169 1581.352,-165.5001 1581.352,-172.5001"/>
</g>
<!-- WidgetChartsModule -->
<g id="node24" class="node">
<title>WidgetChartsModule</title>
<polygon fill="#8dd3c7" stroke="#000000" points="161.8075,-122 158.8075,-126 137.8075,-126 134.8075,-122 24.1925,-122 24.1925,-86 161.8075,-86 161.8075,-122"/>
<text text-anchor="middle" x="93" y="-99.8" font-family="Times,serif" font-size="14.00" fill="#000000">WidgetChartsModule</text>
</g>
<!-- WidgetChartsModule&#45;&gt;PartialsModule -->
<g id="edge24" class="edge">
<title>WidgetChartsModule&#45;&gt;PartialsModule</title>
<path fill="none" stroke="#000000" d="M121.9515,-122.308C121.9515,-142.1455 121.9515,-171 121.9515,-171 121.9515,-171 1581.4253,-171 1581.4253,-171"/>
<polygon fill="#000000" stroke="#000000" points="1581.4253,-174.5001 1591.4253,-171 1581.4252,-167.5001 1581.4253,-174.5001"/>
</g>
</g>
</svg>
