<?xml version="1.0" encoding="UTF-8" standalone="no"?>
<!DOCTYPE svg PUBLIC "-//W3C//DTD SVG 1.1//EN"
 "http://www.w3.org/Graphics/SVG/1.1/DTD/svg11.dtd">
<!-- Generated by graphviz version 2.40.1 (20161225.0304)
 -->
<!-- Title: dependencies Pages: 1 -->
<svg width="2959pt" height="284pt"
 viewBox="0.00 0.00 2959.00 284.00" xmlns="http://www.w3.org/2000/svg" xmlns:xlink="http://www.w3.org/1999/xlink">
<g id="graph0" class="graph" transform="scale(1 1) rotate(0) translate(4 280)">
<title>dependencies</title>
<polygon fill="#ffffff" stroke="transparent" points="-4,4 -4,-280 2955,-280 2955,4 -4,4"/>
<text text-anchor="start" x="1454.5091" y="-42.4" font-family="sans-serif" font-weight="bold" font-size="14.00" fill="#000000">Legend</text>
<polygon fill="#ffffb3" stroke="transparent" points="1241.5,-10 1241.5,-30 1261.5,-30 1261.5,-10 1241.5,-10"/>
<text text-anchor="start" x="1265.129" y="-15.4" font-family="sans-serif" font-size="14.00" fill="#000000"> &#160;Declarations</text>
<polygon fill="#8dd3c7" stroke="transparent" points="1354.5,-10 1354.5,-30 1374.5,-30 1374.5,-10 1354.5,-10"/>
<text text-anchor="start" x="1378.2251" y="-15.4" font-family="sans-serif" font-size="14.00" fill="#000000"> &#160;Module</text>
<polygon fill="#80b1d3" stroke="transparent" points="1440.5,-10 1440.5,-30 1460.5,-30 1460.5,-10 1440.5,-10"/>
<text text-anchor="start" x="1464.2812" y="-15.4" font-family="sans-serif" font-size="14.00" fill="#000000"> &#160;Bootstrap</text>
<polygon fill="#fdb462" stroke="transparent" points="1537.5,-10 1537.5,-30 1557.5,-30 1557.5,-10 1537.5,-10"/>
<text text-anchor="start" x="1561.1732" y="-15.4" font-family="sans-serif" font-size="14.00" fill="#000000"> &#160;Providers</text>
<polygon fill="#fb8072" stroke="transparent" points="1633.5,-10 1633.5,-30 1653.5,-30 1653.5,-10 1633.5,-10"/>
<text text-anchor="start" x="1657.2258" y="-15.4" font-family="sans-serif" font-size="14.00" fill="#000000"> &#160;Exports</text>
<g id="clust1" class="cluster">
<title>cluster_LayoutModule</title>
<polygon fill="none" stroke="#000000" stroke-dasharray="1,5" points="8,-70 8,-268 2943,-268 2943,-70 8,-70"/>
</g>
<g id="clust2" class="cluster">
<title>cluster_LayoutModule_declarations</title>
<polygon fill="none" stroke="#000000" points="288,-78 288,-130 2935,-130 2935,-78 288,-78"/>
</g>
<g id="clust19" class="cluster">
<title>cluster_LayoutModule_imports</title>
<polygon fill="none" stroke="#000000" points="16,-78 16,-130 280,-130 280,-78 16,-78"/>
</g>
<g id="clust20" class="cluster">
<title>cluster_LayoutModule_exports</title>
<polygon fill="none" stroke="#000000" points="442,-208 442,-260 2461,-260 2461,-208 442,-208"/>
</g>
<!-- AsideLeftComponent -->
<g id="node1" class="node">
<title>AsideLeftComponent</title>
<polygon fill="#ffffb3" stroke="#000000" points="2926.8075,-122 2789.1925,-122 2789.1925,-86 2926.8075,-86 2926.8075,-122"/>
<text text-anchor="middle" x="2858" y="-99.8" font-family="Times,serif" font-size="14.00" fill="#000000">AsideLeftComponent</text>
</g>
<!-- LayoutModule -->
<g id="node17" class="node">
<title>LayoutModule</title>
<polygon fill="#8dd3c7" stroke="#000000" points="1515.7078,-187 1512.7078,-191 1491.7078,-191 1488.7078,-187 1416.2922,-187 1416.2922,-151 1515.7078,-151 1515.7078,-187"/>
<text text-anchor="middle" x="1466" y="-164.8" font-family="Times,serif" font-size="14.00" fill="#000000">LayoutModule</text>
</g>
<!-- AsideLeftComponent&#45;&gt;LayoutModule -->
<g id="edge1" class="edge">
<title>AsideLeftComponent&#45;&gt;LayoutModule</title>
<path fill="none" stroke="#000000" d="M2858,-122.2228C2858,-142.3652 2858,-172 2858,-172 2858,-172 1525.9524,-172 1525.9524,-172"/>
<polygon fill="#000000" stroke="#000000" points="1525.9525,-168.5001 1515.9524,-172 1525.9524,-175.5001 1525.9525,-168.5001"/>
</g>
<!-- AsideRightComponent -->
<g id="node2" class="node">
<title>AsideRightComponent</title>
<polygon fill="#ffffb3" stroke="#000000" points="2771.6066,-122 2626.3934,-122 2626.3934,-86 2771.6066,-86 2771.6066,-122"/>
<text text-anchor="middle" x="2699" y="-99.8" font-family="Times,serif" font-size="14.00" fill="#000000">AsideRightComponent</text>
</g>
<!-- AsideRightComponent&#45;&gt;LayoutModule -->
<g id="edge2" class="edge">
<title>AsideRightComponent&#45;&gt;LayoutModule</title>
<path fill="none" stroke="#000000" d="M2699,-122.1061C2699,-141.3391 2699,-169 2699,-169 2699,-169 1525.8622,-169 1525.8622,-169"/>
<polygon fill="#000000" stroke="#000000" points="1525.8622,-165.5001 1515.8622,-169 1525.8621,-172.5001 1525.8622,-165.5001"/>
</g>
<!-- BrandComponent -->
<g id="node3" class="node">
<title>BrandComponent</title>
<polygon fill="#ffffb3" stroke="#000000" points="2608.5451,-122 2493.4549,-122 2493.4549,-86 2608.5451,-86 2608.5451,-122"/>
<text text-anchor="middle" x="2551" y="-99.8" font-family="Times,serif" font-size="14.00" fill="#000000">BrandComponent</text>
</g>
<!-- BrandComponent&#45;&gt;LayoutModule -->
<g id="edge3" class="edge">
<title>BrandComponent&#45;&gt;LayoutModule</title>
<path fill="none" stroke="#000000" d="M2551,-122.2222C2551,-140.8285 2551,-167 2551,-167 2551,-167 1525.7971,-167 1525.7971,-167"/>
<polygon fill="#000000" stroke="#000000" points="1525.7971,-163.5001 1515.7971,-167 1525.7971,-170.5001 1525.7971,-163.5001"/>
</g>
<!-- FooterComponent -->
<g id="node4" class="node">
<title>FooterComponent</title>
<polygon fill="#ffffb3" stroke="#000000" points="2474.8809,-122 2357.1191,-122 2357.1191,-86 2474.8809,-86 2474.8809,-122"/>
<text text-anchor="middle" x="2416" y="-99.8" font-family="Times,serif" font-size="14.00" fill="#000000">FooterComponent</text>
</g>
<!-- FooterComponent&#45;&gt;LayoutModule -->
<g id="edge4" class="edge">
<title>FooterComponent&#45;&gt;LayoutModule</title>
<path fill="none" stroke="#000000" d="M2405.2316,-122.002C2405.2316,-139.6754 2405.2316,-164 2405.2316,-164 2405.2316,-164 1525.834,-164 1525.834,-164"/>
<polygon fill="#000000" stroke="#000000" points="1525.8341,-160.5001 1515.834,-164 1525.834,-167.5001 1525.8341,-160.5001"/>
</g>
<!-- HeaderComponent -->
<g id="node5" class="node">
<title>HeaderComponent</title>
<polygon fill="#ffffb3" stroke="#000000" points="2338.7437,-122 2217.2563,-122 2217.2563,-86 2338.7437,-86 2338.7437,-122"/>
<text text-anchor="middle" x="2278" y="-99.8" font-family="Times,serif" font-size="14.00" fill="#000000">HeaderComponent</text>
</g>
<!-- HeaderComponent&#45;&gt;LayoutModule -->
<g id="edge5" class="edge">
<title>HeaderComponent&#45;&gt;LayoutModule</title>
<path fill="none" stroke="#000000" d="M2255.7158,-122.0336C2255.7158,-139.0597 2255.7158,-162 2255.7158,-162 2255.7158,-162 1525.6994,-162 1525.6994,-162"/>
<polygon fill="#000000" stroke="#000000" points="1525.6995,-158.5001 1515.6994,-162 1525.6994,-165.5001 1525.6995,-158.5001"/>
</g>
<!-- HeaderSearchComponent -->
<g id="node6" class="node">
<title>HeaderSearchComponent</title>
<polygon fill="#ffffb3" stroke="#000000" points="2198.8305,-122 2039.1695,-122 2039.1695,-86 2198.8305,-86 2198.8305,-122"/>
<text text-anchor="middle" x="2119" y="-99.8" font-family="Times,serif" font-size="14.00" fill="#000000">HeaderSearchComponent</text>
</g>
<!-- HeaderSearchComponent&#45;&gt;LayoutModule -->
<g id="edge6" class="edge">
<title>HeaderSearchComponent&#45;&gt;LayoutModule</title>
<path fill="none" stroke="#000000" d="M2083.3035,-122.0091C2083.3035,-138.0494 2083.3035,-159 2083.3035,-159 2083.3035,-159 1525.7331,-159 1525.7331,-159"/>
<polygon fill="#000000" stroke="#000000" points="1525.7331,-155.5001 1515.7331,-159 1525.733,-162.5001 1525.7331,-155.5001"/>
</g>
<!-- LanguageSelectorComponent -->
<g id="node7" class="node">
<title>LanguageSelectorComponent</title>
<polygon fill="#ffffb3" stroke="#000000" points="2021.3974,-122 1838.6026,-122 1838.6026,-86 2021.3974,-86 2021.3974,-122"/>
<text text-anchor="middle" x="1930" y="-99.8" font-family="Times,serif" font-size="14.00" fill="#000000">LanguageSelectorComponent</text>
</g>
<!-- LanguageSelectorComponent&#45;&gt;LayoutModule -->
<g id="edge7" class="edge">
<title>LanguageSelectorComponent&#45;&gt;LayoutModule</title>
<path fill="none" stroke="#000000" d="M1844.875,-122.2396C1844.875,-137.5706 1844.875,-157 1844.875,-157 1844.875,-157 1525.9209,-157 1525.9209,-157"/>
<polygon fill="#000000" stroke="#000000" points="1525.9209,-153.5001 1515.9209,-157 1525.9209,-160.5001 1525.9209,-153.5001"/>
</g>
<!-- MenuHorizontalComponent -->
<g id="node8" class="node">
<title>MenuHorizontalComponent</title>
<polygon fill="#ffffb3" stroke="#000000" points="1820.8599,-122 1647.1401,-122 1647.1401,-86 1820.8599,-86 1820.8599,-122"/>
<text text-anchor="middle" x="1734" y="-99.8" font-family="Times,serif" font-size="14.00" fill="#000000">MenuHorizontalComponent</text>
</g>
<!-- MenuHorizontalComponent&#45;&gt;LayoutModule -->
<g id="edge8" class="edge">
<title>MenuHorizontalComponent&#45;&gt;LayoutModule</title>
<path fill="none" stroke="#000000" d="M1656.0608,-122.0511C1656.0608,-136.373 1656.0608,-154 1656.0608,-154 1656.0608,-154 1525.9362,-154 1525.9362,-154"/>
<polygon fill="#000000" stroke="#000000" points="1525.9363,-150.5001 1515.9362,-154 1525.9362,-157.5001 1525.9363,-150.5001"/>
</g>
<!-- MenuSectionComponent -->
<g id="node9" class="node">
<title>MenuSectionComponent</title>
<polygon fill="#ffffb3" stroke="#000000" points="1628.9846,-122 1473.0154,-122 1473.0154,-86 1628.9846,-86 1628.9846,-122"/>
<text text-anchor="middle" x="1551" y="-99.8" font-family="Times,serif" font-size="14.00" fill="#000000">MenuSectionComponent</text>
</g>
<!-- MenuSectionComponent&#45;&gt;LayoutModule -->
<g id="edge9" class="edge">
<title>MenuSectionComponent&#45;&gt;LayoutModule</title>
<path fill="none" stroke="#000000" d="M1494.3058,-122.1061C1494.3058,-122.1061 1494.3058,-140.991 1494.3058,-140.991"/>
<polygon fill="#000000" stroke="#000000" points="1490.8058,-140.9909 1494.3058,-150.991 1497.8058,-140.991 1490.8058,-140.9909"/>
</g>
<!-- NotificationComponent -->
<g id="node10" class="node">
<title>NotificationComponent</title>
<polygon fill="#ffffb3" stroke="#000000" points="1455.4818,-122 1306.5182,-122 1306.5182,-86 1455.4818,-86 1455.4818,-122"/>
<text text-anchor="middle" x="1381" y="-99.8" font-family="Times,serif" font-size="14.00" fill="#000000">NotificationComponent</text>
</g>
<!-- NotificationComponent&#45;&gt;LayoutModule -->
<g id="edge10" class="edge">
<title>NotificationComponent&#45;&gt;LayoutModule</title>
<path fill="none" stroke="#000000" d="M1435.9436,-122.1061C1435.9436,-122.1061 1435.9436,-140.991 1435.9436,-140.991"/>
<polygon fill="#000000" stroke="#000000" points="1432.4436,-140.9909 1435.9436,-150.991 1439.4436,-140.991 1432.4436,-140.9909"/>
</g>
<!-- QuickActionComponent -->
<g id="node11" class="node">
<title>QuickActionComponent</title>
<polygon fill="#ffffb3" stroke="#000000" points="1288.647,-122 1135.353,-122 1135.353,-86 1288.647,-86 1288.647,-122"/>
<text text-anchor="middle" x="1212" y="-99.8" font-family="Times,serif" font-size="14.00" fill="#000000">QuickActionComponent</text>
</g>
<!-- QuickActionComponent&#45;&gt;LayoutModule -->
<g id="edge11" class="edge">
<title>QuickActionComponent&#45;&gt;LayoutModule</title>
<path fill="none" stroke="#000000" d="M1284.6983,-122.0511C1284.6983,-136.373 1284.6983,-154 1284.6983,-154 1284.6983,-154 1405.9786,-154 1405.9786,-154"/>
<polygon fill="#000000" stroke="#000000" points="1405.9786,-157.5001 1415.9786,-154 1405.9785,-150.5001 1405.9786,-157.5001"/>
</g>
<!-- SearchDefaultComponent -->
<g id="node12" class="node">
<title>SearchDefaultComponent</title>
<polygon fill="#ffffb3" stroke="#000000" points="1116.8975,-122 955.1025,-122 955.1025,-86 1116.8975,-86 1116.8975,-122"/>
<text text-anchor="middle" x="1036" y="-99.8" font-family="Times,serif" font-size="14.00" fill="#000000">SearchDefaultComponent</text>
</g>
<!-- SearchDefaultComponent&#45;&gt;LayoutModule -->
<g id="edge12" class="edge">
<title>SearchDefaultComponent&#45;&gt;LayoutModule</title>
<path fill="none" stroke="#000000" d="M1111.0476,-122.2396C1111.0476,-137.5706 1111.0476,-157 1111.0476,-157 1111.0476,-157 1406.2716,-157 1406.2716,-157"/>
<polygon fill="#000000" stroke="#000000" points="1406.2717,-160.5001 1416.2716,-157 1406.2716,-153.5001 1406.2717,-160.5001"/>
</g>
<!-- SearchDropdownComponent -->
<g id="node13" class="node">
<title>SearchDropdownComponent</title>
<polygon fill="#ffffb3" stroke="#000000" points="937.7934,-122 758.2066,-122 758.2066,-86 937.7934,-86 937.7934,-122"/>
<text text-anchor="middle" x="848" y="-99.8" font-family="Times,serif" font-size="14.00" fill="#000000">SearchDropdownComponent</text>
</g>
<!-- SearchDropdownComponent&#45;&gt;LayoutModule -->
<g id="edge13" class="edge">
<title>SearchDropdownComponent&#45;&gt;LayoutModule</title>
<path fill="none" stroke="#000000" d="M930.125,-122.0091C930.125,-138.0494 930.125,-159 930.125,-159 930.125,-159 1406.0674,-159 1406.0674,-159"/>
<polygon fill="#000000" stroke="#000000" points="1406.0674,-162.5001 1416.0674,-159 1406.0674,-155.5001 1406.0674,-162.5001"/>
</g>
<!-- SubheaderComponent -->
<g id="node14" class="node">
<title>SubheaderComponent</title>
<polygon fill="#ffffb3" stroke="#000000" points="740.42,-122 599.58,-122 599.58,-86 740.42,-86 740.42,-122"/>
<text text-anchor="middle" x="670" y="-99.8" font-family="Times,serif" font-size="14.00" fill="#000000">SubheaderComponent</text>
</g>
<!-- SubheaderComponent&#45;&gt;LayoutModule -->
<g id="edge14" class="edge">
<title>SubheaderComponent&#45;&gt;LayoutModule</title>
<path fill="none" stroke="#000000" d="M658.3165,-122.0336C658.3165,-139.0597 658.3165,-162 658.3165,-162 658.3165,-162 1406.3889,-162 1406.3889,-162"/>
<polygon fill="#000000" stroke="#000000" points="1406.3889,-165.5001 1416.3889,-162 1406.3888,-158.5001 1406.3889,-165.5001"/>
</g>
<!-- TopbarComponent -->
<g id="node15" class="node">
<title>TopbarComponent</title>
<polygon fill="#ffffb3" stroke="#000000" points="581.7604,-122 460.2396,-122 460.2396,-86 581.7604,-86 581.7604,-122"/>
<text text-anchor="middle" x="521" y="-99.8" font-family="Times,serif" font-size="14.00" fill="#000000">TopbarComponent</text>
</g>
<!-- TopbarComponent&#45;&gt;LayoutModule -->
<g id="edge15" class="edge">
<title>TopbarComponent&#45;&gt;LayoutModule</title>
<path fill="none" stroke="#000000" d="M521,-122.002C521,-139.6754 521,-164 521,-164 521,-164 1406.1921,-164 1406.1921,-164"/>
<polygon fill="#000000" stroke="#000000" points="1406.1921,-167.5001 1416.1921,-164 1406.192,-160.5001 1406.1921,-167.5001"/>
</g>
<!-- UserProfileComponent -->
<g id="node16" class="node">
<title>UserProfileComponent</title>
<polygon fill="#ffffb3" stroke="#000000" points="441.8585,-122 296.1415,-122 296.1415,-86 441.8585,-86 441.8585,-122"/>
<text text-anchor="middle" x="369" y="-99.8" font-family="Times,serif" font-size="14.00" fill="#000000">UserProfileComponent</text>
</g>
<!-- UserProfileComponent&#45;&gt;LayoutModule -->
<g id="edge16" class="edge">
<title>UserProfileComponent&#45;&gt;LayoutModule</title>
<path fill="none" stroke="#000000" d="M369,-122.2222C369,-140.8285 369,-167 369,-167 369,-167 1406.3739,-167 1406.3739,-167"/>
<polygon fill="#000000" stroke="#000000" points="1406.374,-170.5001 1416.3739,-167 1406.3739,-163.5001 1406.374,-170.5001"/>
</g>
<!-- AsideLeftComponent  -->
<g id="node20" class="node">
<title>AsideLeftComponent </title>
<polygon fill="#fb8072" stroke="#000000" points="2453.3073,-252 2312.6927,-252 2312.6927,-216 2453.3073,-216 2453.3073,-252"/>
<text text-anchor="middle" x="2383" y="-229.8" font-family="Times,serif" font-size="14.00" fill="#000000">AsideLeftComponent </text>
</g>
<!-- LayoutModule&#45;&gt;AsideLeftComponent  -->
<g id="edge19" class="edge">
<title>LayoutModule&#45;&gt;AsideLeftComponent </title>
<path fill="none" stroke="#000000" stroke-dasharray="5,2" d="M1515.6245,-175C1698.7105,-175 2325.7341,-175 2325.7341,-175 2325.7341,-175 2325.7341,-205.9775 2325.7341,-205.9775"/>
<polygon fill="#000000" stroke="#000000" points="2322.2341,-205.9774 2325.7341,-215.9775 2329.2341,-205.9775 2322.2341,-205.9774"/>
</g>
<!-- AsideRightComponent  -->
<g id="node21" class="node">
<title>AsideRightComponent </title>
<polygon fill="#fb8072" stroke="#000000" points="2294.1071,-252 2145.8929,-252 2145.8929,-216 2294.1071,-216 2294.1071,-252"/>
<text text-anchor="middle" x="2220" y="-229.8" font-family="Times,serif" font-size="14.00" fill="#000000">AsideRightComponent </text>
</g>
<!-- LayoutModule&#45;&gt;AsideRightComponent  -->
<g id="edge20" class="edge">
<title>LayoutModule&#45;&gt;AsideRightComponent </title>
<path fill="none" stroke="#000000" stroke-dasharray="5,2" d="M1515.6661,-177C1676.4363,-177 2172.306,-177 2172.306,-177 2172.306,-177 2172.306,-205.9648 2172.306,-205.9648"/>
<polygon fill="#000000" stroke="#000000" points="2168.806,-205.9648 2172.306,-215.9648 2175.806,-205.9649 2168.806,-205.9648"/>
</g>
<!-- BrandComponent  -->
<g id="node22" class="node">
<title>BrandComponent </title>
<polygon fill="#fb8072" stroke="#000000" points="2127.5442,-252 2008.4558,-252 2008.4558,-216 2127.5442,-216 2127.5442,-252"/>
<text text-anchor="middle" x="2068" y="-229.8" font-family="Times,serif" font-size="14.00" fill="#000000">BrandComponent </text>
</g>
<!-- LayoutModule&#45;&gt;BrandComponent  -->
<g id="edge21" class="edge">
<title>LayoutModule&#45;&gt;BrandComponent </title>
<path fill="none" stroke="#000000" stroke-dasharray="5,2" d="M1515.6737,-180C1650.7752,-180 2014.8382,-180 2014.8382,-180 2014.8382,-180 2014.8382,-205.7181 2014.8382,-205.7181"/>
<polygon fill="#000000" stroke="#000000" points="2011.3383,-205.718 2014.8382,-215.7181 2018.3383,-205.7181 2011.3383,-205.718"/>
</g>
<!-- FooterComponent  -->
<g id="node23" class="node">
<title>FooterComponent </title>
<polygon fill="#fb8072" stroke="#000000" points="1990.8814,-252 1869.1186,-252 1869.1186,-216 1990.8814,-216 1990.8814,-252"/>
<text text-anchor="middle" x="1930" y="-229.8" font-family="Times,serif" font-size="14.00" fill="#000000">FooterComponent </text>
</g>
<!-- LayoutModule&#45;&gt;FooterComponent  -->
<g id="edge22" class="edge">
<title>LayoutModule&#45;&gt;FooterComponent </title>
<path fill="none" stroke="#000000" stroke-dasharray="5,2" d="M1515.6561,-182C1635.3555,-182 1930,-182 1930,-182 1930,-182 1930,-205.8129 1930,-205.8129"/>
<polygon fill="#000000" stroke="#000000" points="1926.5001,-205.8129 1930,-215.8129 1933.5001,-205.813 1926.5001,-205.8129"/>
</g>
<!-- LanguageSelectorComponent  -->
<g id="node24" class="node">
<title>LanguageSelectorComponent </title>
<polygon fill="#fb8072" stroke="#000000" points="1850.897,-252 1665.103,-252 1665.103,-216 1850.897,-216 1850.897,-252"/>
<text text-anchor="middle" x="1758" y="-229.8" font-family="Times,serif" font-size="14.00" fill="#000000">LanguageSelectorComponent </text>
</g>
<!-- LayoutModule&#45;&gt;LanguageSelectorComponent  -->
<g id="edge23" class="edge">
<title>LayoutModule&#45;&gt;LanguageSelectorComponent </title>
<path fill="none" stroke="#000000" stroke-dasharray="5,2" d="M1515.8403,-185C1595.5876,-185 1742.9907,-185 1742.9907,-185 1742.9907,-185 1742.9907,-205.7542 1742.9907,-205.7542"/>
<polygon fill="#000000" stroke="#000000" points="1739.4908,-205.7542 1742.9907,-215.7542 1746.4908,-205.7542 1739.4908,-205.7542"/>
</g>
<!-- MenuHorizontalComponent  -->
<g id="node25" class="node">
<title>MenuHorizontalComponent </title>
<polygon fill="#fb8072" stroke="#000000" points="1646.8602,-252 1469.1398,-252 1469.1398,-216 1646.8602,-216 1646.8602,-252"/>
<text text-anchor="middle" x="1558" y="-229.8" font-family="Times,serif" font-size="14.00" fill="#000000">MenuHorizontalComponent </text>
</g>
<!-- LayoutModule&#45;&gt;MenuHorizontalComponent  -->
<g id="edge24" class="edge">
<title>LayoutModule&#45;&gt;MenuHorizontalComponent </title>
<path fill="none" stroke="#000000" stroke-dasharray="5,2" d="M1492.4619,-187.1061C1492.4619,-187.1061 1492.4619,-205.991 1492.4619,-205.991"/>
<polygon fill="#000000" stroke="#000000" points="1488.962,-205.9909 1492.4619,-215.991 1495.962,-205.991 1488.962,-205.9909"/>
</g>
<!-- NotificationComponent  -->
<g id="node26" class="node">
<title>NotificationComponent </title>
<polygon fill="#fb8072" stroke="#000000" points="1451.4826,-252 1298.5174,-252 1298.5174,-216 1451.4826,-216 1451.4826,-252"/>
<text text-anchor="middle" x="1375" y="-229.8" font-family="Times,serif" font-size="14.00" fill="#000000">NotificationComponent </text>
</g>
<!-- LayoutModule&#45;&gt;NotificationComponent  -->
<g id="edge25" class="edge">
<title>LayoutModule&#45;&gt;NotificationComponent </title>
<path fill="none" stroke="#000000" stroke-dasharray="5,2" d="M1433.8186,-187.1061C1433.8186,-187.1061 1433.8186,-205.991 1433.8186,-205.991"/>
<polygon fill="#000000" stroke="#000000" points="1430.3186,-205.9909 1433.8186,-215.991 1437.3186,-205.991 1430.3186,-205.9909"/>
</g>
<!-- QuickActionComponent  -->
<g id="node27" class="node">
<title>QuickActionComponent </title>
<polygon fill="#fb8072" stroke="#000000" points="1280.6467,-252 1123.3533,-252 1123.3533,-216 1280.6467,-216 1280.6467,-252"/>
<text text-anchor="middle" x="1202" y="-229.8" font-family="Times,serif" font-size="14.00" fill="#000000">QuickActionComponent </text>
</g>
<!-- LayoutModule&#45;&gt;QuickActionComponent  -->
<g id="edge26" class="edge">
<title>LayoutModule&#45;&gt;QuickActionComponent </title>
<path fill="none" stroke="#000000" stroke-dasharray="5,2" d="M1416.2309,-185C1341.2228,-185 1207.875,-185 1207.875,-185 1207.875,-185 1207.875,-205.7542 1207.875,-205.7542"/>
<polygon fill="#000000" stroke="#000000" points="1204.3751,-205.7542 1207.875,-215.7542 1211.3751,-205.7542 1204.3751,-205.7542"/>
</g>
<!-- SearchDropdownComponent  -->
<g id="node28" class="node">
<title>SearchDropdownComponent </title>
<polygon fill="#fb8072" stroke="#000000" points="1105.2933,-252 922.7067,-252 922.7067,-216 1105.2933,-216 1105.2933,-252"/>
<text text-anchor="middle" x="1014" y="-229.8" font-family="Times,serif" font-size="14.00" fill="#000000">SearchDropdownComponent </text>
</g>
<!-- LayoutModule&#45;&gt;SearchDropdownComponent  -->
<g id="edge27" class="edge">
<title>LayoutModule&#45;&gt;SearchDropdownComponent </title>
<path fill="none" stroke="#000000" stroke-dasharray="5,2" d="M1416.0253,-182C1301.5939,-182 1030.3491,-182 1030.3491,-182 1030.3491,-182 1030.3491,-205.8129 1030.3491,-205.8129"/>
<polygon fill="#000000" stroke="#000000" points="1026.8491,-205.8129 1030.3491,-215.8129 1033.8491,-205.813 1026.8491,-205.8129"/>
</g>
<!-- SubheaderComponent  -->
<g id="node29" class="node">
<title>SubheaderComponent </title>
<polygon fill="#fb8072" stroke="#000000" points="904.9194,-252 761.0806,-252 761.0806,-216 904.9194,-216 904.9194,-252"/>
<text text-anchor="middle" x="833" y="-229.8" font-family="Times,serif" font-size="14.00" fill="#000000">SubheaderComponent </text>
</g>
<!-- LayoutModule&#45;&gt;SubheaderComponent  -->
<g id="edge28" class="edge">
<title>LayoutModule&#45;&gt;SubheaderComponent </title>
<path fill="none" stroke="#000000" stroke-dasharray="5,2" d="M1416.3296,-180C1267.1057,-180 833,-180 833,-180 833,-180 833,-205.7181 833,-205.7181"/>
<polygon fill="#000000" stroke="#000000" points="829.5001,-205.718 833,-215.7181 836.5001,-205.7181 829.5001,-205.718"/>
</g>
<!-- TopbarComponent  -->
<g id="node30" class="node">
<title>TopbarComponent </title>
<polygon fill="#fb8072" stroke="#000000" points="742.7605,-252 617.2395,-252 617.2395,-216 742.7605,-216 742.7605,-252"/>
<text text-anchor="middle" x="680" y="-229.8" font-family="Times,serif" font-size="14.00" fill="#000000">TopbarComponent </text>
</g>
<!-- LayoutModule&#45;&gt;TopbarComponent  -->
<g id="edge29" class="edge">
<title>LayoutModule&#45;&gt;TopbarComponent </title>
<path fill="none" stroke="#000000" stroke-dasharray="5,2" d="M1416.283,-177C1246.3782,-177 699.2631,-177 699.2631,-177 699.2631,-177 699.2631,-205.9648 699.2631,-205.9648"/>
<polygon fill="#000000" stroke="#000000" points="695.7632,-205.9648 699.2631,-215.9648 702.7632,-205.9649 695.7632,-205.9648"/>
</g>
<!-- UserProfileComponent  -->
<g id="node31" class="node">
<title>UserProfileComponent </title>
<polygon fill="#fb8072" stroke="#000000" points="599.8588,-252 450.1412,-252 450.1412,-216 599.8588,-216 599.8588,-252"/>
<text text-anchor="middle" x="525" y="-229.8" font-family="Times,serif" font-size="14.00" fill="#000000">UserProfileComponent </text>
</g>
<!-- LayoutModule&#45;&gt;UserProfileComponent  -->
<g id="edge30" class="edge">
<title>LayoutModule&#45;&gt;UserProfileComponent </title>
<path fill="none" stroke="#000000" stroke-dasharray="5,2" d="M1416.1192,-175C1230.5584,-175 590.7796,-175 590.7796,-175 590.7796,-175 590.7796,-205.9775 590.7796,-205.9775"/>
<polygon fill="#000000" stroke="#000000" points="587.2797,-205.9774 590.7796,-215.9775 594.2797,-205.9775 587.2797,-205.9774"/>
</g>
<!-- ListTimelineModule -->
<g id="node18" class="node">
<title>ListTimelineModule</title>
<polygon fill="#8dd3c7" stroke="#000000" points="271.8725,-122 268.8725,-126 247.8725,-126 244.8725,-122 140.1275,-122 140.1275,-86 271.8725,-86 271.8725,-122"/>
<text text-anchor="middle" x="206" y="-99.8" font-family="Times,serif" font-size="14.00" fill="#000000">ListTimelineModule</text>
</g>
<!-- ListTimelineModule&#45;&gt;LayoutModule -->
<g id="edge17" class="edge">
<title>ListTimelineModule&#45;&gt;LayoutModule</title>
<path fill="none" stroke="#000000" d="M206,-122.1061C206,-141.3391 206,-169 206,-169 206,-169 1406.2184,-169 1406.2184,-169"/>
<polygon fill="#000000" stroke="#000000" points="1406.2185,-172.5001 1416.2184,-169 1406.2184,-165.5001 1406.2185,-172.5001"/>
</g>
<!-- SharedModule -->
<g id="node19" class="node">
<title>SharedModule</title>
<polygon fill="#8dd3c7" stroke="#000000" points="122.4231,-122 119.4231,-126 98.4231,-126 95.4231,-122 23.5769,-122 23.5769,-86 122.4231,-86 122.4231,-122"/>
<text text-anchor="middle" x="73" y="-99.8" font-family="Times,serif" font-size="14.00" fill="#000000">SharedModule</text>
</g>
<!-- SharedModule&#45;&gt;LayoutModule -->
<g id="edge18" class="edge">
<title>SharedModule&#45;&gt;LayoutModule</title>
<path fill="none" stroke="#000000" d="M73,-122.2228C73,-142.3652 73,-172 73,-172 73,-172 1406.0117,-172 1406.0117,-172"/>
<polygon fill="#000000" stroke="#000000" points="1406.0117,-175.5001 1416.0117,-172 1406.0117,-168.5001 1406.0117,-175.5001"/>
</g>
</g>
</svg>
