<?xml version="1.0" encoding="UTF-8" standalone="no"?>
<!DOCTYPE svg PUBLIC "-//W3C//DTD SVG 1.1//EN"
 "http://www.w3.org/Graphics/SVG/1.1/DTD/svg11.dtd">
<!-- Generated by graphviz version 2.40.1 (20161225.0304)
 -->
<!-- Title: dependencies Pages: 1 -->
<svg width="1244pt" height="211pt"
 viewBox="0.00 0.00 1244.00 211.00" xmlns="http://www.w3.org/2000/svg" xmlns:xlink="http://www.w3.org/1999/xlink">
<g id="graph0" class="graph" transform="scale(1 1) rotate(0) translate(4 207)">
<title>dependencies</title>
<polygon fill="#ffffff" stroke="transparent" points="-4,4 -4,-207 1240,-207 1240,4 -4,4"/>
<text text-anchor="start" x="597.0091" y="-42.4" font-family="sans-serif" font-weight="bold" font-size="14.00" fill="#000000">Legend</text>
<polygon fill="#ffffb3" stroke="transparent" points="384,-10 384,-30 404,-30 404,-10 384,-10"/>
<text text-anchor="start" x="407.629" y="-15.4" font-family="sans-serif" font-size="14.00" fill="#000000"> &#160;Declarations</text>
<polygon fill="#8dd3c7" stroke="transparent" points="497,-10 497,-30 517,-30 517,-10 497,-10"/>
<text text-anchor="start" x="520.7251" y="-15.4" font-family="sans-serif" font-size="14.00" fill="#000000"> &#160;Module</text>
<polygon fill="#80b1d3" stroke="transparent" points="583,-10 583,-30 603,-30 603,-10 583,-10"/>
<text text-anchor="start" x="606.7812" y="-15.4" font-family="sans-serif" font-size="14.00" fill="#000000"> &#160;Bootstrap</text>
<polygon fill="#fdb462" stroke="transparent" points="680,-10 680,-30 700,-30 700,-10 680,-10"/>
<text text-anchor="start" x="703.6732" y="-15.4" font-family="sans-serif" font-size="14.00" fill="#000000"> &#160;Providers</text>
<polygon fill="#fb8072" stroke="transparent" points="776,-10 776,-30 796,-30 796,-10 776,-10"/>
<text text-anchor="start" x="799.7258" y="-15.4" font-family="sans-serif" font-size="14.00" fill="#000000"> &#160;Exports</text>
<g id="clust1" class="cluster">
<title>cluster_PagesModule</title>
<polygon fill="none" stroke="#000000" stroke-dasharray="1,5" points="8,-70 8,-195 1228,-195 1228,-70 8,-70"/>
</g>
<g id="clust2" class="cluster">
<title>cluster_PagesModule_declarations</title>
<polygon fill="none" stroke="#000000" points="530,-78 530,-130 1220,-130 1220,-78 530,-78"/>
</g>
<g id="clust8" class="cluster">
<title>cluster_PagesModule_imports</title>
<polygon fill="none" stroke="#000000" points="16,-78 16,-130 522,-130 522,-78 16,-78"/>
</g>
<!-- ActionComponent -->
<g id="node1" class="node">
<title>ActionComponent</title>
<polygon fill="#ffffb3" stroke="#000000" points="1211.9356,-122 1092.0644,-122 1092.0644,-86 1211.9356,-86 1211.9356,-122"/>
<text text-anchor="middle" x="1152" y="-99.8" font-family="Times,serif" font-size="14.00" fill="#000000">ActionComponent</text>
</g>
<!-- PagesModule -->
<g id="node6" class="node">
<title>PagesModule</title>
<polygon fill="#8dd3c7" stroke="#000000" points="644.2064,-187 641.2064,-191 620.2064,-191 617.2064,-187 551.7936,-187 551.7936,-151 644.2064,-151 644.2064,-187"/>
<text text-anchor="middle" x="598" y="-164.8" font-family="Times,serif" font-size="14.00" fill="#000000">PagesModule</text>
</g>
<!-- ActionComponent&#45;&gt;PagesModule -->
<g id="edge1" class="edge">
<title>ActionComponent&#45;&gt;PagesModule</title>
<path fill="none" stroke="#000000" d="M1152,-122.0109C1152,-144.4852 1152,-180 1152,-180 1152,-180 654.2809,-180 654.2809,-180"/>
<polygon fill="#000000" stroke="#000000" points="654.2809,-176.5001 644.2809,-180 654.2808,-183.5001 654.2809,-176.5001"/>
</g>
<!-- ErrorPageComponent -->
<g id="node2" class="node">
<title>ErrorPageComponent</title>
<polygon fill="#ffffb3" stroke="#000000" points="1074.0786,-122 935.9214,-122 935.9214,-86 1074.0786,-86 1074.0786,-122"/>
<text text-anchor="middle" x="1005" y="-99.8" font-family="Times,serif" font-size="14.00" fill="#000000">ErrorPageComponent</text>
</g>
<!-- ErrorPageComponent&#45;&gt;PagesModule -->
<g id="edge2" class="edge">
<title>ErrorPageComponent&#45;&gt;PagesModule</title>
<path fill="none" stroke="#000000" d="M1005,-122.1289C1005,-142.5724 1005,-173 1005,-173 1005,-173 654.2918,-173 654.2918,-173"/>
<polygon fill="#000000" stroke="#000000" points="654.2919,-169.5001 644.2918,-173 654.2918,-176.5001 654.2919,-169.5001"/>
</g>
<!-- InnerComponent -->
<g id="node3" class="node">
<title>InnerComponent</title>
<polygon fill="#ffffb3" stroke="#000000" points="918.3683,-122 807.6317,-122 807.6317,-86 918.3683,-86 918.3683,-122"/>
<text text-anchor="middle" x="863" y="-99.8" font-family="Times,serif" font-size="14.00" fill="#000000">InnerComponent</text>
</g>
<!-- InnerComponent&#45;&gt;PagesModule -->
<g id="edge3" class="edge">
<title>InnerComponent&#45;&gt;PagesModule</title>
<path fill="none" stroke="#000000" d="M863,-122.2667C863,-140.5552 863,-166 863,-166 863,-166 654.1595,-166 654.1595,-166"/>
<polygon fill="#000000" stroke="#000000" points="654.1595,-162.5001 644.1595,-166 654.1594,-169.5001 654.1595,-162.5001"/>
</g>
<!-- PagesComponent -->
<g id="node4" class="node">
<title>PagesComponent</title>
<polygon fill="#ffffb3" stroke="#000000" points="789.9888,-122 676.0112,-122 676.0112,-86 789.9888,-86 789.9888,-122"/>
<text text-anchor="middle" x="733" y="-99.8" font-family="Times,serif" font-size="14.00" fill="#000000">PagesComponent</text>
</g>
<!-- PagesComponent&#45;&gt;PagesModule -->
<g id="edge4" class="edge">
<title>PagesComponent&#45;&gt;PagesModule</title>
<path fill="none" stroke="#000000" d="M733,-122.0091C733,-138.0494 733,-159 733,-159 733,-159 654.4593,-159 654.4593,-159"/>
<polygon fill="#000000" stroke="#000000" points="654.4594,-155.5001 644.4593,-159 654.4593,-162.5001 654.4594,-155.5001"/>
</g>
<!-- ProfileComponent -->
<g id="node5" class="node">
<title>ProfileComponent</title>
<polygon fill="#ffffb3" stroke="#000000" points="657.9328,-122 538.0672,-122 538.0672,-86 657.9328,-86 657.9328,-122"/>
<text text-anchor="middle" x="598" y="-99.8" font-family="Times,serif" font-size="14.00" fill="#000000">ProfileComponent</text>
</g>
<!-- ProfileComponent&#45;&gt;PagesModule -->
<g id="edge5" class="edge">
<title>ProfileComponent&#45;&gt;PagesModule</title>
<path fill="none" stroke="#000000" d="M598,-122.1061C598,-122.1061 598,-140.991 598,-140.991"/>
<polygon fill="#000000" stroke="#000000" points="594.5001,-140.9909 598,-150.991 601.5001,-140.991 594.5001,-140.9909"/>
</g>
<!-- LayoutModule -->
<g id="node7" class="node">
<title>LayoutModule</title>
<polygon fill="#8dd3c7" stroke="#000000" points="513.7078,-122 510.7078,-126 489.7078,-126 486.7078,-122 414.2922,-122 414.2922,-86 513.7078,-86 513.7078,-122"/>
<text text-anchor="middle" x="464" y="-99.8" font-family="Times,serif" font-size="14.00" fill="#000000">LayoutModule</text>
</g>
<!-- LayoutModule&#45;&gt;PagesModule -->
<g id="edge6" class="edge">
<title>LayoutModule&#45;&gt;PagesModule</title>
<path fill="none" stroke="#000000" d="M464,-122.0091C464,-138.0494 464,-159 464,-159 464,-159 541.8848,-159 541.8848,-159"/>
<polygon fill="#000000" stroke="#000000" points="541.8848,-162.5001 551.8848,-159 541.8848,-155.5001 541.8848,-162.5001"/>
</g>
<!-- PagesRoutingModule -->
<g id="node8" class="node">
<title>PagesRoutingModule</title>
<polygon fill="#8dd3c7" stroke="#000000" points="396.8244,-122 393.8244,-126 372.8244,-126 369.8244,-122 259.1756,-122 259.1756,-86 396.8244,-86 396.8244,-122"/>
<text text-anchor="middle" x="328" y="-99.8" font-family="Times,serif" font-size="14.00" fill="#000000">PagesRoutingModule</text>
</g>
<!-- PagesRoutingModule&#45;&gt;PagesModule -->
<g id="edge7" class="edge">
<title>PagesRoutingModule&#45;&gt;PagesModule</title>
<path fill="none" stroke="#000000" d="M328,-122.2667C328,-140.5552 328,-166 328,-166 328,-166 541.8921,-166 541.8921,-166"/>
<polygon fill="#000000" stroke="#000000" points="541.8922,-169.5001 551.8921,-166 541.8921,-162.5001 541.8922,-169.5001"/>
</g>
<!-- PartialsModule -->
<g id="node9" class="node">
<title>PartialsModule</title>
<polygon fill="#8dd3c7" stroke="#000000" points="241.5396,-122 238.5396,-126 217.5396,-126 214.5396,-122 140.4604,-122 140.4604,-86 241.5396,-86 241.5396,-122"/>
<text text-anchor="middle" x="191" y="-99.8" font-family="Times,serif" font-size="14.00" fill="#000000">PartialsModule</text>
</g>
<!-- PartialsModule&#45;&gt;PagesModule -->
<g id="edge8" class="edge">
<title>PartialsModule&#45;&gt;PagesModule</title>
<path fill="none" stroke="#000000" d="M191,-122.1289C191,-142.5724 191,-173 191,-173 191,-173 541.7082,-173 541.7082,-173"/>
<polygon fill="#000000" stroke="#000000" points="541.7082,-176.5001 551.7082,-173 541.7081,-169.5001 541.7082,-176.5001"/>
</g>
<!-- SharedModule -->
<g id="node10" class="node">
<title>SharedModule</title>
<polygon fill="#8dd3c7" stroke="#000000" points="122.4231,-122 119.4231,-126 98.4231,-126 95.4231,-122 23.5769,-122 23.5769,-86 122.4231,-86 122.4231,-122"/>
<text text-anchor="middle" x="73" y="-99.8" font-family="Times,serif" font-size="14.00" fill="#000000">SharedModule</text>
</g>
<!-- SharedModule&#45;&gt;PagesModule -->
<g id="edge9" class="edge">
<title>SharedModule&#45;&gt;PagesModule</title>
<path fill="none" stroke="#000000" d="M73,-122.0109C73,-144.4852 73,-180 73,-180 73,-180 541.8699,-180 541.8699,-180"/>
<polygon fill="#000000" stroke="#000000" points="541.8699,-183.5001 551.8699,-180 541.8698,-176.5001 541.8699,-183.5001"/>
</g>
</g>
</svg>
